<?xml version="1.0" encoding="UTF-8"?> <svg xmlns="http://www.w3.org/2000/svg" width="540" height="450" viewBox="0 0 540 450" fill="none"><path d="M219.498 206.995L226.327 203.948C226.327 203.948 233.443 211.34 222.142 210.834C210.84 210.328 219.498 206.995 219.498 206.995Z" fill="#F2AC88"></path><path d="M285.127 415.843C414.779 415.843 519.883 410.165 519.883 403.161C519.883 396.157 414.779 390.479 285.127 390.479C155.475 390.479 50.3711 396.157 50.3711 403.161C50.3711 410.165 155.475 415.843 285.127 415.843Z" fill="#DAE4F3"></path><path d="M502.508 136.096C539.656 220.744 466.374 333.402 307.092 323.379C219.8 317.878 200.811 322.466 127.023 333.666C25.7205 349.068 -18.389 227.642 80.6822 148.099C166.153 79.4701 428.924 -31.6807 502.508 136.096Z" fill="#DAE4F3"></path><path opacity="0.4" d="M430.989 121.17C445.033 124.019 446.685 124.47 452.193 125.79C466.314 129.32 471.602 137.427 469.377 151.692C468.506 157.28 468.209 158.952 465.367 172.975C462.525 186.999 462.118 188.649 460.752 194.137C457.227 208.117 449.208 213.539 434.811 211.296C429.204 210.427 427.541 210.141 413.486 207.292C399.43 204.443 397.789 204.058 392.292 202.683C378.116 199.142 372.873 191.002 375.087 176.781C375.957 171.193 376.243 169.522 379.096 155.487C381.949 141.452 382.335 139.824 383.712 134.325C387.236 120.334 395.255 114.923 409.652 117.167C415.248 118.046 416.922 118.332 430.989 121.17ZM432.916 111.711C418.597 108.807 416.823 108.51 411.161 107.63C391.885 104.628 379.118 113.064 374.36 131.982C372.961 137.482 372.542 139.307 369.634 153.573C366.726 167.839 366.44 169.643 365.547 175.296C362.551 194.544 371 207.292 389.935 212.043C395.498 213.44 397.282 213.858 411.569 216.751C425.856 219.644 427.651 219.952 433.313 220.832C452.578 223.823 465.378 215.398 470.115 196.48C471.514 190.98 471.943 189.155 474.84 174.889C477.737 160.623 478.046 158.831 478.927 153.177C481.945 133.94 473.485 121.17 454.539 116.419C448.954 115.022 447.181 114.604 432.894 111.711H432.916ZM427.684 137.262C422.348 136.186 416.811 136.714 411.775 138.779C406.739 140.844 402.429 144.353 399.39 148.863C396.35 153.373 394.717 158.682 394.698 164.118C394.679 169.554 396.274 174.874 399.281 179.405C402.289 183.937 406.574 187.476 411.595 189.577C416.616 191.678 422.149 192.245 427.493 191.207C432.837 190.169 437.753 187.573 441.62 183.747C445.487 179.92 448.131 175.035 449.219 169.709C449.942 166.166 449.959 162.516 449.268 158.966C448.576 155.417 447.191 152.039 445.191 149.025C443.191 146.012 440.615 143.421 437.611 141.403C434.607 139.384 431.233 137.977 427.684 137.262ZM418.652 181.741C415.19 181.028 412.017 179.307 409.534 176.795C407.051 174.282 405.369 171.092 404.7 167.626C404.032 164.16 404.407 160.574 405.777 157.321C407.148 154.067 409.454 151.292 412.403 149.346C415.352 147.4 418.812 146.37 422.347 146.385C425.882 146.401 429.332 147.463 432.264 149.435C435.195 151.408 437.475 154.203 438.817 157.469C440.158 160.735 440.501 164.324 439.801 167.784C439.333 170.087 438.415 172.276 437.099 174.225C435.783 176.174 434.095 177.844 432.131 179.141C430.168 180.437 427.968 181.334 425.656 181.781C423.345 182.227 420.969 182.213 418.663 181.741H418.652ZM457.271 135.546C456.022 135.291 454.726 135.411 453.545 135.892C452.365 136.373 451.354 137.192 450.641 138.247C449.927 139.302 449.543 140.544 449.536 141.817C449.53 143.089 449.901 144.335 450.604 145.397C451.307 146.459 452.309 147.289 453.484 147.782C454.659 148.275 455.955 148.409 457.206 148.167C458.457 147.924 459.609 147.317 460.514 146.421C461.42 145.526 462.039 144.382 462.294 143.135C462.623 141.47 462.281 139.743 461.343 138.329C460.404 136.914 458.945 135.926 457.282 135.579L457.271 135.546Z" fill="#5F9EF3"></path><path d="M360.801 68.4629H250.957C238.328 68.4629 228.09 78.6859 228.09 91.2967V363.334C228.09 375.944 238.328 386.168 250.957 386.168H360.801C373.43 386.168 383.668 375.944 383.668 363.334V91.2967C383.668 78.6859 373.43 68.4629 360.801 68.4629Z" fill="#487EC6"></path><path d="M360.979 77.9551H250.794C242.058 77.9551 234.977 85.0265 234.977 93.7496V360.87C234.977 369.593 242.058 376.665 250.794 376.665H360.979C369.715 376.665 376.797 369.593 376.797 360.87V93.7496C376.797 85.0265 369.715 77.9551 360.979 77.9551Z" fill="white"></path><path d="M332.627 74.7211C332.147 74.2136 331.568 73.8094 330.926 73.5333C330.284 73.2571 329.592 73.1149 328.893 73.1152H288.555C287.856 73.1136 287.163 73.2552 286.521 73.5315C285.879 73.8077 285.3 74.2126 284.821 74.7211H270.578C270.578 74.7211 271.184 77.9548 276.306 77.9548C281.428 77.9548 283.389 78.2738 283.389 82.6843V87.0839C283.389 88.452 283.933 89.7641 284.902 90.7315C285.871 91.6989 287.185 92.2424 288.555 92.2424H328.893C330.263 92.2424 331.577 91.6989 332.546 90.7315C333.514 89.7641 334.059 88.452 334.059 87.0839V82.6843C334.059 78.2848 336.008 77.9548 341.141 77.9548C346.275 77.9548 346.869 74.7211 346.869 74.7211H332.627Z" fill="#487EC6"></path><path opacity="0.3" d="M303.544 152.814H252.863V203.421H303.544V152.814Z" fill="#5F9EF3"></path><path d="M358.919 152.814H308.238V203.421H358.919V152.814Z" fill="#487EC6"></path><path d="M347.628 163.879L337.714 161.36C337.714 163.23 335.423 164.748 333.87 164.748H333.297C331.744 164.748 329.453 163.23 329.453 161.36L320.542 163.34L312.324 187.164L317.909 189.364L322.645 176.242V194.874H344.522V173.976L348.729 188.792L353.829 186.801L347.628 163.879Z" fill="#5F9EF3"></path><path d="M303.544 208.755H252.863V259.361H303.544V208.755Z" fill="#487EC6"></path><path d="M358.919 208.755H308.238V259.361H358.919V208.755Z" fill="#487EC6"></path><path d="M340.668 218.093L337.727 217.301C337.727 219.171 335.436 223.9 333.883 223.9H333.31C331.757 223.9 329.465 219.127 329.465 217.301L326.161 218.181C326.161 218.181 327.571 229.796 322.625 229.884V250.782H344.501V229.939C340.304 229.939 340.668 218.093 340.668 218.093Z" fill="#5F9EF3"></path><path d="M303.544 264.685H252.863V315.291H303.544V264.685Z" fill="#487EC6"></path><path d="M358.919 264.685H308.238V315.291H358.919V264.685Z" fill="#487EC6"></path><path d="M344.666 275.111L337.704 273.23C337.704 275.111 335.413 276.629 333.86 276.629H333.287C331.734 276.629 329.443 275.111 329.443 273.23L322.481 275.111L314.66 284.515L319.353 289.201L322.657 285.813V306.711H344.533V285.813L347.838 289.201L352.53 284.515L344.666 275.111Z" fill="#5F9EF3"></path><path d="M303.544 320.625H252.863V371.231H303.544V320.625Z" fill="#487EC6"></path><path d="M358.919 320.625H308.238V371.231H358.919V320.625Z" fill="#487EC6"></path><path d="M257.71 103.451V101.064C257.71 100.833 257.765 100.789 257.997 100.8C258.239 100.821 258.474 100.888 258.691 100.998C258.735 101.02 258.771 101.055 258.794 101.099C258.818 101.142 258.828 101.191 258.823 101.24C258.823 101.922 258.823 102.604 258.823 103.275V103.77C258.818 103.792 258.818 103.814 258.823 103.836L259.12 103.033C259.267 102.609 259.455 102.2 259.682 101.812C259.828 101.551 260.018 101.317 260.244 101.119C260.374 101.015 260.524 100.936 260.684 100.888C260.858 100.822 261.05 100.822 261.224 100.888L261.698 101.141C261.819 101.206 261.919 101.305 261.983 101.427C262.048 101.548 262.075 101.686 262.061 101.823C262.061 102.692 261.995 103.561 261.973 104.43C261.973 104.683 261.973 104.947 261.973 105.2C261.963 105.265 261.963 105.332 261.973 105.398C262.039 105.629 262.16 105.673 262.359 105.519C262.438 105.44 262.511 105.355 262.579 105.266C262.663 105.161 262.741 105.051 262.81 104.936C263.185 104.298 263.537 103.66 263.912 103.022C263.939 102.987 263.953 102.945 263.953 102.901C263.953 102.857 263.939 102.815 263.912 102.78C263.726 102.551 263.631 102.262 263.646 101.968C263.66 101.674 263.782 101.395 263.989 101.185C264.111 101.03 264.269 100.908 264.45 100.827C264.63 100.747 264.827 100.711 265.024 100.723H265.245C265.334 100.741 265.415 100.789 265.473 100.859C265.531 100.929 265.563 101.017 265.564 101.108C265.58 101.282 265.549 101.456 265.476 101.614C265.363 101.886 265.215 102.141 265.035 102.373C264.925 102.516 264.925 102.516 265.035 102.637L266.005 103.363C266.243 103.546 266.451 103.765 266.621 104.012C266.809 104.31 266.887 104.664 266.842 105.013C266.842 105.013 266.842 105.013 266.842 105.079C266.842 105.145 266.842 105.079 266.842 105.145C266.874 105.118 266.903 105.089 266.93 105.057C267.324 104.637 267.601 104.121 267.734 103.561C267.739 103.502 267.739 103.444 267.734 103.385C267.734 102.494 267.734 101.614 267.734 100.734V100.635C267.734 100.547 267.734 100.514 267.613 100.514H266.511C266.357 100.514 266.302 100.514 266.291 100.305C266.282 100.106 266.328 99.9085 266.423 99.7333C266.444 99.6873 266.478 99.6487 266.521 99.6231C266.565 99.5975 266.615 99.586 266.666 99.5903C266.963 99.5903 267.26 99.5903 267.558 99.5903C267.855 99.5903 267.844 99.5903 267.855 99.3264C267.866 99.0624 267.855 98.4905 267.855 98.0835V98.0285C267.855 97.7755 267.998 97.6765 268.252 97.7315C268.505 97.7865 268.758 97.8525 269.001 97.9295C269.243 98.0065 269.21 98.0505 269.199 98.2595C269.199 98.6664 269.199 99.0734 269.199 99.4804C269.199 99.6453 269.199 99.6453 269.364 99.6563L270.653 99.7223H270.851C270.994 99.7223 271.039 99.7223 271.028 99.9203C271.009 100.054 270.979 100.187 270.939 100.316C270.92 100.372 270.882 100.42 270.832 100.452C270.782 100.484 270.723 100.498 270.664 100.492H269.353C269.188 100.492 269.177 100.492 269.166 100.679C269.166 101.053 269.166 101.427 269.166 101.779V104.441C269.153 104.717 269.19 104.992 269.276 105.255C269.311 105.379 269.363 105.497 269.43 105.607C269.447 105.644 269.472 105.678 269.504 105.705C269.535 105.732 269.572 105.752 269.612 105.764C269.651 105.775 269.693 105.778 269.734 105.772C269.775 105.766 269.814 105.751 269.849 105.728C269.969 105.662 270.077 105.577 270.168 105.475C270.485 105.121 270.698 104.687 270.785 104.221C270.796 104.041 270.796 103.861 270.785 103.682C270.877 103.181 271.041 102.696 271.27 102.241C271.419 101.826 271.66 101.45 271.975 101.141C272.147 100.971 272.359 100.847 272.593 100.781C272.826 100.716 273.072 100.711 273.308 100.767C273.603 100.849 273.866 101.022 274.057 101.262L274.156 101.361V101.229C274.153 101.19 274.158 101.151 274.171 101.115C274.184 101.078 274.205 101.044 274.232 101.016C274.259 100.988 274.292 100.966 274.328 100.952C274.364 100.937 274.403 100.931 274.442 100.932C274.706 100.93 274.966 100.991 275.202 101.108C275.26 101.137 275.307 101.184 275.336 101.241C275.366 101.298 275.377 101.363 275.368 101.427C275.368 102.318 275.368 103.209 275.301 104.1C275.301 104.474 275.301 104.848 275.368 105.2C275.389 105.399 275.445 105.592 275.533 105.772C275.558 105.844 275.604 105.908 275.663 105.957C275.723 106.005 275.795 106.036 275.871 106.046C275.948 106.056 276.025 106.045 276.096 106.015C276.166 105.984 276.227 105.934 276.271 105.871C276.441 105.655 276.558 105.403 276.612 105.134C276.629 105.047 276.629 104.957 276.612 104.87C276.478 103.919 276.591 102.949 276.943 102.054C277.086 101.706 277.296 101.388 277.56 101.119C277.701 100.982 277.869 100.876 278.054 100.808C278.239 100.74 278.436 100.712 278.633 100.725C278.829 100.739 279.021 100.794 279.194 100.886C279.368 100.979 279.521 101.107 279.641 101.262C279.672 101.298 279.705 101.331 279.741 101.361C279.745 101.314 279.745 101.266 279.741 101.218C279.739 101.179 279.746 101.139 279.76 101.103C279.774 101.066 279.796 101.033 279.824 101.005C279.852 100.977 279.886 100.955 279.922 100.941C279.959 100.926 279.998 100.92 280.038 100.921C280.318 100.922 280.594 100.99 280.842 101.119C280.883 101.138 280.915 101.17 280.935 101.21C280.955 101.25 280.961 101.295 280.952 101.339C280.952 101.548 280.952 101.768 280.952 101.977C280.952 103 280.952 104.023 280.952 105.057C280.948 105.108 280.948 105.16 280.952 105.211C280.995 105.176 281.032 105.135 281.062 105.09C281.601 104.316 282.013 103.462 282.285 102.56V102.417C282.307 102.37 282.311 102.316 282.297 102.265C282.283 102.215 282.251 102.171 282.208 102.142C282.061 102.004 281.965 101.82 281.935 101.621C281.905 101.421 281.943 101.218 282.043 101.042C282.107 100.877 282.223 100.737 282.374 100.643C282.525 100.55 282.703 100.509 282.88 100.525C282.951 100.522 283.021 100.534 283.087 100.56C283.153 100.586 283.213 100.626 283.262 100.677C283.311 100.728 283.348 100.789 283.372 100.856C283.395 100.923 283.404 100.994 283.398 101.064C283.403 101.163 283.403 101.262 283.398 101.361C283.398 101.427 283.398 101.46 283.486 101.449H283.816C284.059 101.449 284.29 101.35 284.532 101.317C284.66 101.301 284.79 101.301 284.918 101.317C284.99 101.317 285.062 101.332 285.128 101.36C285.194 101.389 285.254 101.431 285.304 101.483C285.353 101.536 285.392 101.598 285.416 101.666C285.441 101.734 285.451 101.806 285.446 101.878C285.441 102.038 285.419 102.196 285.38 102.351C285.292 102.769 285.193 103.187 285.127 103.616C285.017 104.186 285.017 104.772 285.127 105.343C285.165 105.478 285.213 105.61 285.27 105.739C285.297 105.791 285.33 105.839 285.369 105.882C285.411 105.932 285.463 105.973 285.522 106.001C285.581 106.029 285.645 106.044 285.711 106.044C285.776 106.044 285.841 106.029 285.9 106.001C285.959 105.973 286.011 105.932 286.052 105.882C286.188 105.748 286.287 105.581 286.339 105.398C286.372 105.264 286.372 105.124 286.339 104.991C286.193 104.129 286.242 103.246 286.482 102.406C286.601 102.007 286.796 101.633 287.055 101.306C287.204 101.115 287.391 100.958 287.605 100.844C287.849 100.723 288.123 100.676 288.394 100.709C288.664 100.743 288.918 100.855 289.125 101.031L289.346 101.262L289.423 101.328C289.428 101.299 289.428 101.269 289.423 101.24C289.423 100.965 289.533 100.877 289.797 100.899C290.007 100.93 290.213 100.978 290.414 101.042C290.491 101.063 290.558 101.112 290.6 101.179C290.643 101.246 290.659 101.327 290.646 101.405C290.646 102.175 290.624 102.945 290.579 103.715C290.548 104.281 290.578 104.849 290.668 105.409C290.691 105.538 290.732 105.664 290.789 105.783C290.812 105.845 290.851 105.9 290.902 105.943C290.953 105.986 291.014 106.015 291.079 106.027C291.145 106.039 291.212 106.034 291.275 106.013C291.338 105.991 291.395 105.953 291.439 105.904C291.526 105.824 291.601 105.732 291.659 105.629C291.97 105.221 292.157 104.732 292.199 104.221C292.199 103.341 292.199 102.472 292.199 101.592C292.199 101.416 292.199 101.229 292.199 101.053C292.199 100.877 292.276 100.778 292.463 100.811C292.65 100.844 292.937 100.899 293.179 100.954C293.226 100.97 293.266 100.999 293.296 101.038C293.326 101.078 293.342 101.125 293.344 101.174C293.35 101.236 293.35 101.299 293.344 101.361V103.154C293.344 103.011 293.432 102.868 293.488 102.736C293.653 102.274 293.807 101.812 293.972 101.361C294.033 101.225 294.103 101.093 294.181 100.965C294.215 100.909 294.264 100.862 294.322 100.831C294.38 100.8 294.446 100.786 294.512 100.789C294.807 100.786 295.094 100.883 295.327 101.064C295.404 101.134 295.465 101.219 295.507 101.313C295.549 101.408 295.57 101.511 295.569 101.614C295.569 102.109 295.569 102.615 295.569 103.121C295.569 103.418 295.569 103.704 295.635 103.99C295.629 104.015 295.629 104.042 295.635 104.067C295.635 104.067 295.635 104.001 295.635 103.968C295.805 103 296.086 102.055 296.473 101.152C296.49 101.082 296.523 101.017 296.569 100.961C296.615 100.905 296.672 100.86 296.737 100.828C296.802 100.797 296.873 100.78 296.946 100.779C297.018 100.778 297.09 100.793 297.156 100.822C297.375 100.898 297.589 100.99 297.794 101.097C297.894 101.148 297.976 101.228 298.029 101.326C298.082 101.424 298.104 101.536 298.092 101.647C298.037 102.582 298.026 103.506 298.092 104.441C298.095 104.776 298.143 105.109 298.235 105.431C298.277 105.55 298.332 105.665 298.4 105.772C298.43 105.83 298.475 105.878 298.53 105.912C298.586 105.946 298.649 105.964 298.714 105.964C298.779 105.964 298.843 105.946 298.898 105.912C298.954 105.878 298.999 105.83 299.028 105.772C299.121 105.603 299.198 105.426 299.259 105.244C299.259 105.079 299.337 104.914 299.381 104.749C299.425 104.584 299.502 104.54 299.59 104.54C299.678 104.54 299.766 104.639 299.788 104.782C299.794 104.84 299.794 104.899 299.788 104.958C299.741 105.313 299.648 105.66 299.513 105.992C299.47 106.084 299.418 106.173 299.359 106.256C299.226 106.47 299.019 106.627 298.777 106.698C298.535 106.769 298.275 106.749 298.048 106.641C297.718 106.503 297.451 106.248 297.299 105.926C297.161 105.631 297.075 105.315 297.045 104.991C297.045 104.551 296.968 104.111 296.957 103.671C296.946 103.231 296.957 102.813 296.957 102.384V102.274C296.957 102.274 296.957 102.274 296.957 102.219C296.957 102.164 296.957 102.219 296.902 102.219C296.896 102.259 296.896 102.3 296.902 102.34C296.445 103.363 296.169 104.457 296.087 105.574C296.087 105.684 296.087 105.794 296.087 105.915C296.087 106.036 296.032 106.179 295.845 106.212C295.746 106.244 295.643 106.256 295.54 106.247C295.437 106.238 295.336 106.209 295.245 106.161C295.153 106.113 295.072 106.046 295.007 105.966C294.942 105.886 294.893 105.794 294.864 105.695C294.784 105.421 294.725 105.142 294.688 104.859C294.586 104.049 294.527 103.234 294.512 102.417C294.512 102.417 294.512 102.285 294.457 102.285C294.402 102.285 294.358 102.285 294.336 102.373C294.203 102.659 294.06 102.934 293.95 103.231C293.716 103.852 293.578 104.504 293.543 105.167C293.543 105.552 293.543 105.937 293.488 106.322C293.493 106.366 293.493 106.41 293.488 106.454C293.488 106.608 293.421 106.663 293.267 106.685C292.982 106.762 292.682 106.762 292.397 106.685C292.315 106.667 292.243 106.62 292.193 106.554C292.142 106.487 292.117 106.405 292.122 106.322C292.122 106.201 292.122 106.08 292.122 105.948C292.039 106.1 291.947 106.247 291.846 106.388C291.749 106.519 291.621 106.623 291.472 106.69C291.324 106.757 291.161 106.786 290.998 106.773C290.801 106.766 290.608 106.713 290.436 106.617C290.264 106.521 290.117 106.386 290.007 106.223C289.895 106.064 289.816 105.885 289.775 105.695C289.757 105.69 289.738 105.69 289.72 105.695C289.654 105.794 289.599 105.893 289.522 105.992C289.306 106.3 289.003 106.537 288.652 106.674C288.33 106.814 287.967 106.833 287.633 106.725C287.298 106.618 287.014 106.392 286.834 106.091C286.702 105.904 286.713 105.904 286.581 106.091C286.487 106.225 286.38 106.35 286.262 106.465C286.102 106.618 285.901 106.72 285.682 106.757C285.464 106.795 285.24 106.765 285.039 106.674C284.817 106.579 284.619 106.437 284.458 106.259C284.296 106.08 284.175 105.869 284.103 105.64C283.991 105.31 283.927 104.965 283.915 104.617C283.895 103.876 283.976 103.136 284.158 102.417C284.158 102.417 284.158 102.417 284.158 102.34C284.158 102.263 284.158 102.219 284.058 102.208H283.992H283.298C283.21 102.208 283.188 102.208 283.155 102.318C282.855 103.19 282.448 104.021 281.944 104.793C281.679 105.2 281.371 105.596 281.073 105.981C280.976 106.094 280.925 106.239 280.93 106.388C280.93 106.861 280.93 107.345 280.93 107.818C280.929 108.448 280.833 109.075 280.644 109.676C280.552 109.979 280.388 110.254 280.165 110.478C279.942 110.703 279.668 110.869 279.366 110.963C279.09 111.061 278.794 111.085 278.506 111.033C278.218 110.981 277.948 110.855 277.725 110.666C277.54 110.52 277.4 110.325 277.32 110.104C277.24 109.882 277.224 109.643 277.273 109.412C277.338 109.002 277.522 108.62 277.802 108.313C278.141 107.919 278.509 107.551 278.903 107.213C279.157 106.982 279.399 106.74 279.663 106.52C279.696 106.491 279.721 106.455 279.736 106.415C279.752 106.375 279.757 106.331 279.752 106.289C279.752 106.168 279.752 106.058 279.752 105.937H279.685C279.55 106.098 279.403 106.248 279.245 106.388C279.011 106.595 278.718 106.725 278.408 106.762C278.118 106.806 277.822 106.762 277.558 106.634C277.294 106.506 277.076 106.301 276.932 106.047L276.799 105.849L276.667 106.047C276.589 106.207 276.48 106.35 276.346 106.467C276.211 106.584 276.055 106.673 275.885 106.729C275.582 106.812 275.257 106.775 274.98 106.625C274.703 106.476 274.495 106.225 274.398 105.926C274.398 105.827 274.321 105.739 274.288 105.64L274.123 105.882C273.99 106.097 273.815 106.284 273.609 106.432C273.403 106.579 273.169 106.684 272.922 106.74C272.653 106.807 272.37 106.792 272.109 106.698C271.848 106.604 271.621 106.435 271.457 106.212C271.266 105.966 271.124 105.686 271.039 105.387C271.037 105.35 271.037 105.313 271.039 105.277C271.039 105.277 270.983 105.354 270.972 105.387C270.863 105.66 270.715 105.915 270.532 106.146C270.416 106.3 270.279 106.437 270.124 106.553C269.958 106.688 269.754 106.767 269.54 106.779C269.326 106.791 269.115 106.735 268.935 106.619C268.736 106.513 268.572 106.352 268.461 106.157C268.259 105.821 268.132 105.446 268.086 105.057C268.086 104.914 268.086 104.782 268.02 104.65L267.701 105.255C267.513 105.595 267.267 105.9 266.974 106.157C266.71 106.382 266.403 106.55 266.072 106.653C265.74 106.755 265.391 106.788 265.046 106.751C264.717 106.735 264.393 106.664 264.088 106.542C263.983 106.49 263.883 106.427 263.791 106.355C263.737 106.321 263.698 106.269 263.68 106.208C263.661 106.148 263.666 106.082 263.691 106.025C263.752 105.808 263.875 105.613 264.044 105.464C264.095 105.422 264.159 105.399 264.226 105.399C264.292 105.399 264.356 105.422 264.407 105.464L264.617 105.607C264.76 105.704 264.911 105.788 265.068 105.86C265.138 105.89 265.214 105.906 265.29 105.906C265.366 105.906 265.441 105.891 265.511 105.861C265.581 105.831 265.645 105.787 265.697 105.732C265.75 105.677 265.791 105.612 265.817 105.541C265.89 105.392 265.927 105.228 265.927 105.062C265.927 104.897 265.89 104.733 265.817 104.584C265.691 104.35 265.527 104.138 265.333 103.957L264.661 103.451C264.54 103.341 264.54 103.341 264.462 103.451L263.78 104.551C263.533 105.003 263.253 105.437 262.942 105.849C262.735 106.115 262.486 106.345 262.204 106.531C262.047 106.634 261.864 106.691 261.676 106.696C261.547 106.704 261.418 106.674 261.306 106.61C261.194 106.545 261.104 106.449 261.048 106.333C260.97 106.176 260.914 106.01 260.883 105.838C260.795 105.426 260.761 105.004 260.783 104.584C260.783 104.045 260.783 103.484 260.838 102.956C260.838 102.615 260.838 102.274 260.838 101.933V101.856C260.844 101.827 260.844 101.797 260.838 101.768C260.838 101.768 260.783 101.768 260.761 101.768L260.607 101.933C260.273 102.337 260.001 102.79 259.803 103.275C259.354 104.279 259.05 105.342 258.9 106.432C258.903 106.459 258.9 106.486 258.892 106.512C258.885 106.538 258.871 106.562 258.854 106.582C258.836 106.603 258.815 106.62 258.79 106.632C258.766 106.643 258.74 106.65 258.713 106.652C258.512 106.69 258.307 106.69 258.107 106.652C258.03 106.631 257.96 106.591 257.904 106.535C257.848 106.479 257.808 106.409 257.787 106.333C257.716 106.124 257.682 105.904 257.688 105.684V103.451H257.71ZM274.178 103.451C274.178 103.209 274.178 102.956 274.178 102.714C274.147 102.458 274.065 102.211 273.936 101.988C273.882 101.894 273.807 101.814 273.717 101.755C273.627 101.695 273.523 101.658 273.416 101.646C273.308 101.634 273.199 101.648 273.098 101.687C272.997 101.725 272.907 101.787 272.834 101.867C272.745 101.96 272.667 102.064 272.603 102.175C272.47 102.409 272.384 102.667 272.349 102.934C272.252 103.415 272.215 103.907 272.239 104.397C272.243 104.692 272.291 104.985 272.382 105.266C272.433 105.437 272.507 105.599 272.603 105.75C272.645 105.818 272.702 105.877 272.769 105.921C272.837 105.965 272.913 105.994 272.993 106.006C273.073 106.017 273.154 106.011 273.231 105.988C273.309 105.965 273.38 105.925 273.44 105.871L273.539 105.783C273.718 105.603 273.853 105.385 273.936 105.145C274.103 104.596 274.185 104.025 274.178 103.451ZM289.599 103.451C289.599 103.275 289.599 103.088 289.599 102.912C289.599 102.736 289.599 102.626 289.533 102.483C289.499 102.276 289.416 102.08 289.291 101.911C289.198 101.768 289.053 101.666 288.887 101.627C288.72 101.588 288.545 101.615 288.398 101.702C288.256 101.784 288.139 101.901 288.057 102.043C287.931 102.249 287.845 102.476 287.804 102.714C287.67 103.328 287.629 103.958 287.682 104.584C287.704 104.889 287.771 105.189 287.881 105.475C287.942 105.61 288.028 105.734 288.134 105.838C288.202 105.898 288.285 105.939 288.374 105.957C288.463 105.974 288.555 105.967 288.641 105.937C288.795 105.882 288.932 105.787 289.037 105.662C289.196 105.468 289.312 105.243 289.379 105.002C289.536 104.501 289.596 103.974 289.555 103.451H289.599ZM279.829 103.352C279.829 103.044 279.829 102.736 279.73 102.428C279.694 102.259 279.635 102.096 279.553 101.944C279.478 101.801 279.35 101.692 279.196 101.64C279.042 101.589 278.874 101.599 278.727 101.669C278.599 101.732 278.486 101.822 278.397 101.933C278.23 102.144 278.11 102.387 278.044 102.648C277.953 102.956 277.894 103.273 277.868 103.594C277.807 104.158 277.852 104.729 278 105.277C278.052 105.451 278.134 105.615 278.242 105.761C278.327 105.867 278.449 105.938 278.584 105.958C278.719 105.979 278.857 105.948 278.969 105.871C279.096 105.796 279.205 105.694 279.289 105.574C279.399 105.406 279.488 105.225 279.553 105.035C279.716 104.493 279.794 103.929 279.785 103.363L279.829 103.352ZM279.95 108.005V107.477C279.955 107.433 279.955 107.388 279.95 107.345C279.95 107.345 279.95 107.279 279.884 107.345L279.807 107.422C279.564 107.675 279.311 107.928 279.08 108.192C278.784 108.516 278.546 108.888 278.375 109.291C278.262 109.535 278.223 109.807 278.265 110.072C278.293 110.211 278.369 110.335 278.48 110.424C278.59 110.512 278.729 110.559 278.87 110.556C279.011 110.565 279.151 110.533 279.274 110.465C279.397 110.397 279.497 110.295 279.564 110.171C279.644 110.033 279.707 109.885 279.752 109.731C279.873 109.168 279.925 108.592 279.906 108.016L279.95 108.005Z" fill="#487EC6"></path><path d="M256.531 101.911C256.531 102.758 256.531 103.593 256.531 104.429C256.531 104.891 256.531 105.342 256.454 105.793C256.418 106.278 256.255 106.745 255.98 107.146C255.799 107.407 255.552 107.616 255.264 107.751C255.187 107.785 255.105 107.807 255.022 107.817C255.006 107.817 254.991 107.814 254.977 107.808C254.963 107.802 254.95 107.792 254.94 107.781C254.929 107.77 254.921 107.756 254.916 107.742C254.912 107.727 254.91 107.711 254.911 107.696C254.901 107.63 254.901 107.564 254.911 107.498C255.111 106.88 255.208 106.234 255.198 105.584C255.198 104.209 255.198 102.824 255.198 101.449C255.198 100.58 255.198 99.7108 255.198 98.8309C255.203 98.7466 255.203 98.6622 255.198 98.5779C255.198 98.5119 255.198 98.4899 255.088 98.5779C254.999 98.6462 254.918 98.7236 254.845 98.8089C254.543 99.1632 254.308 99.5695 254.151 100.008C253.972 100.516 253.89 101.053 253.909 101.592C253.926 101.982 254.044 102.36 254.251 102.692C254.307 102.766 254.345 102.852 254.361 102.944C254.361 103.065 254.361 103.12 254.195 103.098C254.105 103.088 254.016 103.066 253.931 103.032C253.647 102.91 253.398 102.72 253.206 102.478C253.014 102.236 252.884 101.95 252.83 101.647C252.76 101.279 252.79 100.899 252.918 100.547C253.226 99.4559 253.944 98.5261 254.922 97.951H255.022C255.208 97.8183 255.431 97.7471 255.66 97.7471C255.89 97.7471 256.113 97.8183 256.299 97.951C256.374 97.988 256.436 98.0466 256.477 98.1191C256.519 98.1916 256.537 98.2748 256.531 98.3579V101.911Z" fill="#487EC6"></path><path d="M262.755 136.173C267.981 136.173 272.217 131.943 272.217 126.724C272.217 121.506 267.981 117.276 262.755 117.276C257.529 117.276 253.293 121.506 253.293 126.724C253.293 131.943 257.529 136.173 262.755 136.173Z" fill="#5F9EF3"></path><path d="M291.65 136.173C296.875 136.173 301.112 131.943 301.112 126.724C301.112 121.506 296.875 117.276 291.65 117.276C286.424 117.276 282.188 121.506 282.188 126.724C282.188 131.943 286.424 136.173 291.65 136.173Z" fill="#5F9EF3"></path><path d="M320.552 136.173C325.778 136.173 330.014 131.943 330.014 126.724C330.014 121.506 325.778 117.276 320.552 117.276C315.326 117.276 311.09 121.506 311.09 126.724C311.09 131.943 315.326 136.173 320.552 136.173Z" fill="#5F9EF3"></path><path d="M349.446 136.173C354.672 136.173 358.908 131.943 358.908 126.724C358.908 121.506 354.672 117.276 349.446 117.276C344.221 117.276 339.984 121.506 339.984 126.724C339.984 131.943 344.221 136.173 349.446 136.173Z" fill="#5F9EF3"></path><path d="M289.191 215.86H267.161C266.885 216.96 264.418 252.245 264.418 252.245H273.472L278.132 232.238L282.791 252.245H291.835C291.835 252.245 289.466 216.96 289.191 215.86Z" fill="#5F9EF3"></path><path d="M344.566 327.741H322.536C322.26 328.841 319.793 364.115 319.793 364.115H328.836L333.485 344.108L338.265 364.126H347.276C347.276 364.126 344.842 328.83 344.566 327.741Z" fill="#5F9EF3"></path><path d="M292.761 275.749L282.847 273.23C282.847 275.111 280.556 276.629 279.003 276.629H278.43C276.877 276.629 274.586 275.111 274.586 273.23L265.674 275.21L257.457 299.034L263.042 301.234L267.778 288.101V306.744H289.654V285.846L293.862 300.673L298.962 298.671L292.761 275.749Z" fill="#5F9EF3"></path><path d="M285.26 329.963L282.319 329.171C282.319 331.041 280.039 335.77 278.486 335.77H277.88C276.316 335.77 274.036 330.997 274.036 329.171L270.731 330.051C270.731 330.051 272.141 341.666 267.195 341.754V362.652H289.071V341.754C284.93 341.754 285.26 329.963 285.26 329.963Z" fill="#5F9EF3"></path><path opacity="0.2" d="M290.15 122.42L193.16 151.862L220.166 240.564L317.156 211.121L290.15 122.42Z" fill="#5F9EF3"></path><path d="M97.2305 372.793C97.5169 375.576 98.332 391.491 98.332 391.491H105.426L109.942 372.793H97.2305Z" fill="#F2AC88"></path><path d="M94.8828 403.161L98.3416 391.524H105.435L120.746 403.161H94.8828Z" fill="#E55948"></path><path d="M161.02 403.161L164.478 391.524H171.572L186.883 403.161H161.02Z" fill="#E55948"></path><path d="M105.624 252.442C95.3577 286.44 113.334 334.462 90.5 393.746L116.727 393.526C116.727 393.526 141.368 342.931 133.25 295.844C157.968 329.941 157.935 393.636 157.935 393.636L179.58 393.746C189.494 327.752 177.068 297.054 156.679 265.894L105.624 252.442Z" fill="#6DC7B7"></path><path d="M147.903 181.544L149.379 171.799C149.379 171.799 160.911 173.118 157.265 145.401C156.583 140.155 151.494 137.064 145.226 137.262C125.399 137.9 131.358 158.589 131.358 158.589L133.561 168.884L129.375 186.361L147.903 181.544Z" fill="#F2AC88"></path><path d="M191.5 179.74L209.422 173.91C209.422 173.91 202.064 168.697 191.797 173.404C181.531 178.112 191.5 179.74 191.5 179.74Z" fill="#F2AC88"></path><path d="M157.078 144.554C159.479 144.554 160.735 143.069 162.75 137.228C164.557 131.949 149.918 124.481 145.126 126.724C142.295 128.066 139.321 121.291 131.357 124.118C126.83 125.724 126.202 135.502 120.441 135.502C114.934 135.502 109.151 146.853 114.845 150.031C125.078 155.762 117.048 161.778 126.037 163.615C129.143 164.253 129.958 171.6 132.844 171.435C135.73 171.27 144.961 168.96 146.889 165.749C148.816 162.537 147.274 162.812 147.858 157.741C148.442 152.671 149.664 154.717 151.229 153.408C152.793 152.099 153.299 144.51 157.078 144.554Z" fill="#E55948"></path><path d="M320.63 200.616C325.923 200.616 330.213 196.331 330.213 191.047C330.213 185.762 325.923 181.478 320.63 181.478C315.337 181.478 311.047 185.762 311.047 191.047C311.047 196.331 315.337 200.616 320.63 200.616Z" fill="white"></path><path d="M323.537 188.143H317.71C316.888 188.143 316.223 188.807 316.223 189.627V194.423C316.223 195.243 316.888 195.908 317.71 195.908H323.537C324.358 195.908 325.024 195.243 325.024 194.423V189.627C325.024 188.807 324.358 188.143 323.537 188.143Z" stroke="#5F9EF3" stroke-width="1.08" stroke-linecap="round" stroke-linejoin="round"></path><path d="M318.504 189.506V187.042C318.543 186.507 318.783 186.006 319.176 185.641C319.57 185.275 320.087 185.072 320.624 185.072C321.162 185.072 321.679 185.275 322.073 185.641C322.466 186.006 322.706 186.507 322.745 187.042V189.561" stroke="#5F9EF3" stroke-width="1.08" stroke-linecap="round" stroke-linejoin="round"></path><path d="M320.63 256.545C325.923 256.545 330.213 252.261 330.213 246.976C330.213 241.691 325.923 237.407 320.63 237.407C315.337 237.407 311.047 241.691 311.047 246.976C311.047 252.261 315.337 256.545 320.63 256.545Z" fill="white"></path><path d="M323.537 244.072H317.71C316.888 244.072 316.223 244.737 316.223 245.557V250.353C316.223 251.173 316.888 251.838 317.71 251.838H323.537C324.358 251.838 325.024 251.173 325.024 250.353V245.557C325.024 244.737 324.358 244.072 323.537 244.072Z" stroke="#5F9EF3" stroke-width="1.08" stroke-linecap="round" stroke-linejoin="round"></path><path d="M318.502 245.437V242.929C318.481 242.638 318.52 242.346 318.617 242.071C318.714 241.796 318.867 241.544 319.066 241.33C319.265 241.117 319.505 240.946 319.773 240.83C320.041 240.713 320.33 240.653 320.622 240.653C320.914 240.653 321.203 240.713 321.471 240.83C321.739 240.946 321.979 241.117 322.178 241.33C322.377 241.544 322.53 241.796 322.627 242.071C322.724 242.346 322.763 242.638 322.742 242.929V245.437" stroke="#5F9EF3" stroke-width="1.08" stroke-linecap="round" stroke-linejoin="round"></path><path d="M320.63 312.486C325.923 312.486 330.213 308.202 330.213 302.917C330.213 297.632 325.923 293.348 320.63 293.348C315.337 293.348 311.047 297.632 311.047 302.917C311.047 308.202 315.337 312.486 320.63 312.486Z" fill="white"></path><path d="M323.537 300.013H317.71C316.888 300.013 316.223 300.677 316.223 301.498V306.293C316.223 307.113 316.888 307.778 317.71 307.778H323.537C324.358 307.778 325.024 307.113 325.024 306.293V301.498C325.024 300.677 324.358 300.013 323.537 300.013Z" stroke="#5F9EF3" stroke-width="1.08" stroke-linecap="round" stroke-linejoin="round"></path><path d="M318.502 301.432V298.924C318.481 298.633 318.52 298.341 318.617 298.066C318.714 297.791 318.867 297.539 319.066 297.325C319.265 297.112 319.505 296.941 319.773 296.825C320.041 296.709 320.33 296.648 320.622 296.648C320.914 296.648 321.203 296.709 321.471 296.825C321.739 296.941 321.979 297.112 322.178 297.325C322.377 297.539 322.53 297.791 322.627 298.066C322.724 298.341 322.763 298.633 322.742 298.924V301.432" stroke="#5F9EF3" stroke-width="1.08" stroke-linecap="round" stroke-linejoin="round"></path><path d="M320.63 368.416C325.923 368.416 330.213 364.131 330.213 358.846C330.213 353.562 325.923 349.277 320.63 349.277C315.337 349.277 311.047 353.562 311.047 358.846C311.047 364.131 315.337 368.416 320.63 368.416Z" fill="white"></path><path d="M323.537 355.942H317.71C316.888 355.942 316.223 356.607 316.223 357.427V362.223C316.223 363.043 316.888 363.708 317.71 363.708H323.537C324.358 363.708 325.024 363.043 325.024 362.223V357.427C325.024 356.607 324.358 355.942 323.537 355.942Z" stroke="#5F9EF3" stroke-width="1.08" stroke-linecap="round" stroke-linejoin="round"></path><path d="M318.504 357.318V354.799C318.543 354.264 318.783 353.763 319.176 353.398C319.57 353.032 320.087 352.829 320.624 352.829C321.162 352.829 321.679 353.032 322.073 353.398C322.466 353.763 322.706 354.264 322.745 354.799V357.318" stroke="#5F9EF3" stroke-width="1.08" stroke-linecap="round" stroke-linejoin="round"></path><path d="M265.255 256.545C270.548 256.545 274.838 252.261 274.838 246.976C274.838 241.691 270.548 237.407 265.255 237.407C259.962 237.407 255.672 241.691 255.672 246.976C255.672 252.261 259.962 256.545 265.255 256.545Z" fill="white"></path><path d="M268.166 244.072H262.339C261.517 244.072 260.852 244.737 260.852 245.557V250.353C260.852 251.173 261.517 251.838 262.339 251.838H268.166C268.987 251.838 269.653 251.173 269.653 250.353V245.557C269.653 244.737 268.987 244.072 268.166 244.072Z" stroke="#5F9EF3" stroke-width="1.08" stroke-linecap="round" stroke-linejoin="round"></path><path d="M263.131 245.437V242.929C263.109 242.638 263.149 242.346 263.246 242.071C263.343 241.796 263.496 241.544 263.695 241.33C263.894 241.117 264.134 240.946 264.402 240.83C264.67 240.713 264.959 240.653 265.251 240.653C265.543 240.653 265.832 240.713 266.1 240.83C266.367 240.946 266.608 241.117 266.807 241.33C267.006 241.544 267.159 241.796 267.256 242.071C267.353 242.346 267.392 242.638 267.371 242.929V245.437" stroke="#5F9EF3" stroke-width="1.08" stroke-linecap="round" stroke-linejoin="round"></path><path d="M265.255 312.486C270.548 312.486 274.838 308.202 274.838 302.917C274.838 297.632 270.548 293.348 265.255 293.348C259.962 293.348 255.672 297.632 255.672 302.917C255.672 308.202 259.962 312.486 265.255 312.486Z" fill="white"></path><path d="M268.166 300.013H262.339C261.517 300.013 260.852 300.677 260.852 301.498V306.293C260.852 307.113 261.517 307.778 262.339 307.778H268.166C268.987 307.778 269.653 307.113 269.653 306.293V301.498C269.653 300.677 268.987 300.013 268.166 300.013Z" stroke="#5F9EF3" stroke-width="1.08" stroke-linecap="round" stroke-linejoin="round"></path><path d="M263.131 301.432V298.924C263.109 298.633 263.149 298.341 263.246 298.066C263.343 297.791 263.496 297.539 263.695 297.325C263.894 297.112 264.134 296.941 264.402 296.825C264.67 296.709 264.959 296.648 265.251 296.648C265.543 296.648 265.832 296.709 266.1 296.825C266.367 296.941 266.608 297.112 266.807 297.325C267.006 297.539 267.159 297.791 267.256 298.066C267.353 298.341 267.392 298.633 267.371 298.924V301.432" stroke="#5F9EF3" stroke-width="1.08" stroke-linecap="round" stroke-linejoin="round"></path><path d="M265.255 368.416C270.548 368.416 274.838 364.131 274.838 358.846C274.838 353.562 270.548 349.277 265.255 349.277C259.962 349.277 255.672 353.562 255.672 358.846C255.672 364.131 259.962 368.416 265.255 368.416Z" fill="white"></path><path d="M268.166 355.942H262.339C261.517 355.942 260.852 356.607 260.852 357.427V362.223C260.852 363.043 261.517 363.708 262.339 363.708H268.166C268.987 363.708 269.653 363.043 269.653 362.223V357.427C269.653 356.607 268.987 355.942 268.166 355.942Z" stroke="#5F9EF3" stroke-width="1.08" stroke-linecap="round" stroke-linejoin="round"></path><path d="M263.129 357.318V354.799C263.168 354.264 263.408 353.763 263.801 353.398C264.195 353.032 264.712 352.829 265.249 352.829C265.787 352.829 266.304 353.032 266.698 353.398C267.091 353.763 267.331 354.264 267.37 354.799V357.318" stroke="#5F9EF3" stroke-width="1.08" stroke-linecap="round" stroke-linejoin="round"></path><path d="M441.211 403.161L461.721 341.996" stroke="#5F9EF3" stroke-width="4.5" stroke-miterlimit="10" stroke-linecap="round"></path><path d="M401.547 403.161L422.057 341.996" stroke="#5F9EF3" stroke-width="4.5" stroke-miterlimit="10" stroke-linecap="round"></path><path d="M497.182 403.161L476.672 341.996" stroke="#5F9EF3" stroke-width="4.5" stroke-miterlimit="10" stroke-linecap="round"></path><path d="M410.336 339.114H475.326C479.692 339.114 483.91 337.534 487.2 334.666C490.489 331.799 492.625 327.838 493.214 323.518L496.078 302.455L498.116 287.133C498.272 285.989 498.18 284.826 497.848 283.72C497.516 282.614 496.95 281.593 496.189 280.724C495.429 279.855 494.49 279.158 493.437 278.682C492.385 278.205 491.242 277.959 490.086 277.96H461.832C459.871 277.961 457.977 278.671 456.501 279.959C455.024 281.247 454.066 283.026 453.802 284.966L448.471 324.211C446.884 332.702 439.868 339.125 428.731 339.125" fill="#5F9EF3"></path><path d="M410.336 339.114H475.326C479.692 339.114 483.91 337.534 487.2 334.666C490.489 331.799 492.625 327.838 493.214 323.518L496.078 302.455L498.116 287.133C498.272 285.989 498.18 284.826 497.848 283.72C497.516 282.614 496.95 281.593 496.189 280.724C495.429 279.855 494.49 279.158 493.437 278.682C492.385 278.205 491.242 277.959 490.086 277.96H461.832C459.871 277.961 457.977 278.671 456.501 279.959C455.024 281.247 454.066 283.026 453.802 284.966L448.471 324.211C446.884 332.702 439.868 339.125 428.731 339.125" stroke="#5F9EF3" stroke-width="7.5" stroke-linecap="round" stroke-linejoin="round"></path><path d="M129.318 180.443C161.262 186.757 186.796 174.845 189.571 172.832C191.521 179.024 191.301 181.29 191.301 181.29C191.301 181.29 163.564 201.341 142.184 200.681C120.804 200.021 129.318 180.443 129.318 180.443Z" fill="#275798"></path><path d="M287.794 120.332L189.441 144.854L211.935 234.803L310.288 210.28L287.794 120.332Z" fill="#E55948"></path><path d="M264.794 145.73H250.474C251.312 149.03 247.555 152.858 244.526 153.617L243.975 153.771L243.425 153.892C240.395 154.64 235.284 153.056 234.458 149.723L221.703 156.465L210.688 176.989L221.868 183.039L226.737 175.428L236.044 212.626L252.127 208.611L262.426 206.049L278.508 202.034L269.2 164.836L277.087 169.235L284.104 158.643L264.794 145.73Z" fill="white"></path><path d="M218.212 232.787L236.398 228.685C236.398 228.685 238.921 239.057 219.986 238.584C208.673 238.298 218.212 232.787 218.212 232.787Z" fill="#F2AC88"></path><path d="M159.808 266.994C157.935 226.65 160.315 215.53 160.315 215.53C160.315 215.53 188.568 247.064 222.848 239.651C223.343 239.255 222.462 230.203 222.462 230.203C222.462 230.203 184.79 228.839 162.903 190.815C154.454 176.143 133.03 172.403 123.557 179.178C115.13 185.206 110.768 196.183 105.624 218.654C100.81 239.695 99.4336 263.397 99.4336 263.397C99.4336 263.397 142.756 266.994 159.808 266.994Z" fill="#275798"></path><path d="M194.801 170.721L200.011 169.72C199.745 170.913 199.093 171.986 198.155 172.771C197.217 173.557 196.046 174.011 194.823 174.064C192.146 174.383 190.295 173.976 191.188 173.712C192.08 173.448 192.587 171.524 194.801 170.721Z" fill="#F2AC88"></path></svg> 