<?xml version="1.0" encoding="UTF-8"?> <svg xmlns="http://www.w3.org/2000/svg" width="60" height="60" viewBox="0 0 60 60" fill="none"><path d="M50.5201 0L9.4799 0C4.2443 0 0 4.2443 0 9.4799L0 50.5201C0 55.7557 4.2443 60 9.4799 60H50.5201C55.7557 60 60 55.7557 60 50.5201V9.4799C60 4.2443 55.7557 0 50.5201 0Z" fill="#5F9EF3"></path><path d="M44.9166 14.3882H17.0087C15.3729 14.3882 14.0469 15.7142 14.0469 17.35V41.9342C14.0469 43.5699 15.3729 44.896 17.0087 44.896H44.9166C46.5523 44.896 47.8783 43.5699 47.8783 41.9342V17.35C47.8783 15.7142 46.5523 14.3882 44.9166 14.3882Z" fill="#487EC6"></path><path d="M44.9166 14.3882H17.0087C15.3729 14.3882 14.0469 15.7142 14.0469 17.35V41.9342C14.0469 43.5699 15.3729 44.896 17.0087 44.896H44.9166C46.5523 44.896 47.8783 43.5699 47.8783 41.9342V17.35C47.8783 15.7142 46.5523 14.3882 44.9166 14.3882Z" fill="white"></path><path d="M47.8783 21.8443V17.35C47.8783 15.714 46.5526 14.3882 44.9166 14.3882H17.0087C15.3727 14.3882 14.0469 15.714 14.0469 17.35V21.8443H47.8783Z" fill="#275798"></path><path d="M23.3294 25.2271H18.7612C18.3451 25.2271 18.0078 25.5643 18.0078 25.9804V30.5486C18.0078 30.9647 18.3451 31.302 18.7612 31.302H23.3294C23.7455 31.302 24.0828 30.9647 24.0828 30.5486V25.9804C24.0828 25.5643 23.7455 25.2271 23.3294 25.2271Z" fill="#5F9EF3"></path><path d="M33.2454 25.2271H28.6772C28.2611 25.2271 27.9238 25.5643 27.9238 25.9804V30.5486C27.9238 30.9647 28.2611 31.302 28.6772 31.302H33.2454C33.6615 31.302 33.9988 30.9647 33.9988 30.5486V25.9804C33.9988 25.5643 33.6615 25.2271 33.2454 25.2271Z" fill="#275798"></path><path d="M43.1614 25.2271H38.5932C38.1771 25.2271 37.8398 25.5643 37.8398 25.9804V30.5486C37.8398 30.9647 38.1771 31.302 38.5932 31.302H43.1614C43.5775 31.302 43.9148 30.9647 43.9148 30.5486V25.9804C43.9148 25.5643 43.5775 25.2271 43.1614 25.2271Z" fill="#5F9EF3"></path><path d="M23.3294 34.6885H18.7612C18.3451 34.6885 18.0078 35.0258 18.0078 35.4418V40.0101C18.0078 40.4261 18.3451 40.7634 18.7612 40.7634H23.3294C23.7455 40.7634 24.0828 40.4261 24.0828 40.0101V35.4418C24.0828 35.0258 23.7455 34.6885 23.3294 34.6885Z" fill="#5F9EF3"></path><path d="M33.2454 34.6885H28.6772C28.2611 34.6885 27.9238 35.0258 27.9238 35.4418V40.0101C27.9238 40.4261 28.2611 40.7634 28.6772 40.7634H33.2454C33.6615 40.7634 33.9988 40.4261 33.9988 40.0101V35.4418C33.9988 35.0258 33.6615 34.6885 33.2454 34.6885Z" fill="#5F9EF3"></path><path d="M43.1614 34.6885H38.5932C38.1771 34.6885 37.8398 35.0258 37.8398 35.4418V40.0101C37.8398 40.4261 38.1771 40.7634 38.5932 40.7634H43.1614C43.5775 40.7634 43.9148 40.4261 43.9148 40.0101V35.4418C43.9148 35.0258 43.5775 34.6885 43.1614 34.6885Z" fill="#5F9EF3"></path><path d="M24.0828 12.202C24.0828 11.5697 23.5711 11.0571 22.9399 11.0571C22.3086 11.0571 21.7969 11.5697 21.7969 12.202V16.5745C21.7969 17.2067 22.3086 17.7193 22.9399 17.7193C23.5711 17.7193 24.0828 17.2067 24.0828 16.5745V12.202Z" fill="white"></path><path d="M40.7742 12.202C40.7742 11.5697 40.2625 11.0571 39.6313 11.0571C39 11.0571 38.4883 11.5697 38.4883 12.202V16.5745C38.4883 17.2067 39 17.7193 39.6313 17.7193C40.2625 17.7193 40.7742 17.2067 40.7742 16.5745V12.202Z" fill="white"></path><path opacity="0.2" d="M31.4135 30.5303H18.2221C17.1918 30.5303 16.6748 31.7748 17.406 32.5023L20.3124 35.4087L14.0527 41.6683V41.9342C14.0527 43.5702 15.3785 44.896 17.0145 44.896H25.5933L27.6983 42.791L29.8033 44.896H32.5731C32.5731 44.896 32.5731 44.8849 32.5731 44.8775V31.6862C32.5731 31.0473 32.0561 30.5303 31.4172 30.5303H31.4135Z" fill="#275798"></path><path d="M29.5637 28.6802H16.3724C15.342 28.6802 14.825 29.9247 15.5562 30.6522L18.4626 33.5586L11.0545 40.9668C10.2605 41.7607 10.2605 43.0459 11.0545 43.8399L15.5636 48.349C16.3576 49.143 17.6428 49.143 18.4368 48.349L25.8449 40.9409L28.7513 43.8473C29.4788 44.5748 30.7233 44.0615 30.7233 43.0311V29.8398C30.7233 29.2009 30.2063 28.6839 29.5674 28.6839L29.5637 28.6802Z" fill="#487EC6"></path></svg> 