<?xml version="1.0" encoding="UTF-8"?> <svg xmlns="http://www.w3.org/2000/svg" width="540" height="450" viewBox="0 0 540 450" fill="none"><path d="M286.387 426.694C409.462 426.694 509.234 421.016 509.234 414.012C509.234 407.008 409.462 401.33 286.387 401.33C163.311 401.33 63.5391 407.008 63.5391 414.012C63.5391 421.016 163.311 426.694 286.387 426.694Z" fill="#DAE4F3"></path><path d="M30.311 267.802C-1.5747 174.663 78.4693 64.3215 236.952 92.6108C323.813 108.097 343.076 105.392 417.469 101.817C519.657 96.9114 556.248 229.493 452.444 302.108C362.834 364.769 93.5655 452.419 30.311 267.802Z" fill="#DAE4F3"></path><path d="M342.187 24.1973H232.544C219.938 24.1973 209.719 34.4203 209.719 47.0311V319.068C209.719 331.679 219.938 341.902 232.544 341.902H342.187C354.793 341.902 365.013 331.679 365.013 319.068V47.0311C365.013 34.4203 354.793 24.1973 342.187 24.1973Z" fill="#487EC6"></path><path d="M342.366 33.7012H232.383C223.663 33.7012 216.594 40.7726 216.594 49.4957V316.616C216.594 325.339 223.663 332.411 232.383 332.411H342.366C351.086 332.411 358.155 325.339 358.155 316.616V49.4957C358.155 40.7726 351.086 33.7012 342.366 33.7012Z" fill="white"></path><path d="M314.063 30.4562C313.58 29.9519 313 29.5507 312.357 29.2766C311.715 29.0025 311.023 28.8613 310.325 28.8613H270.061C269.364 28.8621 268.675 29.0038 268.035 29.2779C267.394 29.5519 266.816 29.9527 266.334 30.4562H252.117C252.117 30.4562 252.722 33.7009 257.846 33.7009C262.969 33.7009 264.915 34.0198 264.915 38.4194V42.819C264.918 44.1833 265.461 45.4909 266.426 46.4556C267.39 47.4203 268.697 47.9636 270.061 47.9665H310.325C311.691 47.9665 313.001 47.4245 313.967 46.4595C314.934 45.4945 315.479 44.1852 315.482 42.819V38.4194C315.482 34.0198 317.439 33.7009 322.551 33.7009C327.664 33.7009 328.28 30.4562 328.28 30.4562H314.063Z" fill="#487EC6"></path><path d="M227.609 45.4805H243.915" stroke="#275798" stroke-width="1.71" stroke-linecap="round" stroke-linejoin="round"></path><path d="M227.609 51.2988H243.915" stroke="#275798" stroke-width="1.71" stroke-linecap="round" stroke-linejoin="round"></path><path d="M227.609 57.1064H243.915" stroke="#275798" stroke-width="1.71" stroke-linecap="round" stroke-linejoin="round"></path><path d="M373.434 198.96H201.296C199.584 198.96 198.195 200.349 198.195 202.062V228.184C198.195 229.897 199.584 231.286 201.296 231.286H373.434C375.147 231.286 376.535 229.897 376.535 228.184V202.062C376.535 200.349 375.147 198.96 373.434 198.96Z" fill="#E55948"></path><path d="M252.022 185.529C251.326 185.529 250.723 185.425 250.211 185.217C249.7 185.01 249.304 184.718 249.024 184.342C248.744 183.958 248.605 183.511 248.605 182.999C248.605 182.488 248.74 182.056 249.012 181.704C249.284 181.353 249.676 181.085 250.187 180.901C250.699 180.717 251.31 180.625 252.022 180.625C252.733 180.625 253.345 180.717 253.856 180.901C254.376 181.085 254.771 181.357 255.043 181.716C255.323 182.068 255.463 182.496 255.463 182.999C255.463 183.511 255.319 183.958 255.031 184.342C254.751 184.718 254.352 185.01 253.832 185.217C253.321 185.425 252.717 185.529 252.022 185.529ZM252.022 184.306C252.597 184.306 253.053 184.186 253.389 183.946C253.724 183.707 253.892 183.375 253.892 182.951C253.892 182.536 253.724 182.208 253.389 181.968C253.053 181.728 252.597 181.608 252.022 181.608C251.446 181.608 250.995 181.728 250.667 181.968C250.339 182.208 250.175 182.536 250.175 182.951C250.175 183.375 250.339 183.707 250.667 183.946C250.995 184.186 251.446 184.306 252.022 184.306ZM252.022 181.44C251.374 181.44 250.819 181.357 250.355 181.189C249.892 181.013 249.532 180.761 249.276 180.433C249.028 180.098 248.904 179.698 248.904 179.234C248.904 178.755 249.032 178.343 249.288 177.999C249.552 177.648 249.92 177.376 250.391 177.184C250.863 176.992 251.406 176.896 252.022 176.896C252.645 176.896 253.193 176.992 253.664 177.184C254.136 177.376 254.504 177.648 254.767 177.999C255.031 178.343 255.163 178.755 255.163 179.234C255.163 179.698 255.035 180.098 254.779 180.433C254.532 180.761 254.172 181.013 253.7 181.189C253.229 181.357 252.669 181.44 252.022 181.44ZM252.022 180.481C252.517 180.481 252.909 180.377 253.197 180.17C253.485 179.954 253.628 179.666 253.628 179.306C253.628 178.931 253.481 178.639 253.185 178.431C252.889 178.223 252.501 178.119 252.022 178.119C251.542 178.119 251.158 178.223 250.871 178.431C250.583 178.639 250.439 178.931 250.439 179.306C250.439 179.666 250.579 179.954 250.859 180.17C251.146 180.377 251.534 180.481 252.022 180.481ZM260.874 185.409V184.114L260.791 183.838V181.572C260.791 181.133 260.659 180.793 260.395 180.553C260.131 180.305 259.731 180.182 259.196 180.182C258.836 180.182 258.48 180.237 258.129 180.349C257.785 180.461 257.493 180.617 257.254 180.817L256.666 179.726C257.01 179.462 257.417 179.266 257.889 179.138C258.369 179.003 258.864 178.935 259.376 178.935C260.303 178.935 261.018 179.158 261.522 179.606C262.034 180.046 262.289 180.729 262.289 181.656V185.409H260.874ZM258.86 185.493C258.381 185.493 257.961 185.413 257.601 185.253C257.242 185.085 256.962 184.858 256.762 184.57C256.57 184.274 256.474 183.942 256.474 183.575C256.474 183.215 256.558 182.891 256.726 182.604C256.902 182.316 257.186 182.088 257.577 181.92C257.969 181.752 258.488 181.668 259.136 181.668H260.994V182.663H259.244C258.732 182.663 258.389 182.747 258.213 182.915C258.037 183.075 257.949 183.275 257.949 183.515C257.949 183.787 258.057 184.002 258.273 184.162C258.488 184.322 258.788 184.402 259.172 184.402C259.54 184.402 259.867 184.318 260.155 184.15C260.451 183.982 260.663 183.735 260.791 183.407L261.042 184.306C260.898 184.682 260.639 184.974 260.263 185.181C259.895 185.389 259.428 185.493 258.86 185.493ZM272.294 178.935C272.806 178.935 273.257 179.034 273.649 179.234C274.049 179.434 274.36 179.742 274.584 180.158C274.808 180.565 274.92 181.093 274.92 181.74V185.409H273.421V181.932C273.421 181.365 273.297 180.941 273.049 180.661C272.802 180.381 272.446 180.241 271.982 180.241C271.655 180.241 271.363 180.313 271.107 180.457C270.859 180.601 270.663 180.813 270.52 181.093C270.384 181.373 270.316 181.728 270.316 182.16V185.409H268.817V181.932C268.817 181.365 268.693 180.941 268.445 180.661C268.197 180.381 267.842 180.241 267.378 180.241C267.05 180.241 266.759 180.313 266.503 180.457C266.255 180.601 266.059 180.813 265.915 181.093C265.779 181.373 265.712 181.728 265.712 182.16V185.409H264.213V179.007H265.64V180.709L265.388 180.206C265.604 179.79 265.915 179.474 266.323 179.258C266.739 179.042 267.21 178.935 267.738 178.935C268.337 178.935 268.857 179.082 269.297 179.378C269.744 179.674 270.04 180.122 270.184 180.721L269.596 180.517C269.804 180.038 270.148 179.654 270.627 179.366C271.107 179.078 271.663 178.935 272.294 178.935ZM279.825 182.699V181.452H283.122V182.699H279.825ZM288.963 185.409V177.616L289.646 178.323H287.188V177.016H290.522V185.409H288.963ZM292.079 185.409V184.366L295.412 181.201C295.692 180.937 295.899 180.705 296.035 180.505C296.171 180.305 296.259 180.122 296.299 179.954C296.347 179.778 296.371 179.614 296.371 179.462C296.371 179.078 296.239 178.783 295.975 178.575C295.712 178.359 295.324 178.251 294.812 178.251C294.405 178.251 294.033 178.323 293.697 178.467C293.37 178.611 293.086 178.831 292.846 179.126L291.755 178.287C292.083 177.847 292.522 177.508 293.074 177.268C293.633 177.02 294.257 176.896 294.944 176.896C295.552 176.896 296.079 176.996 296.527 177.196C296.983 177.388 297.33 177.664 297.57 178.023C297.818 178.383 297.942 178.811 297.942 179.306C297.942 179.578 297.906 179.85 297.834 180.122C297.762 180.385 297.626 180.665 297.426 180.961C297.226 181.257 296.935 181.588 296.551 181.956L293.685 184.678L293.362 184.09H298.265V185.409H292.079ZM303.17 185.493C302.65 185.493 302.175 185.373 301.743 185.133C301.319 184.894 300.98 184.534 300.724 184.054C300.476 183.567 300.352 182.951 300.352 182.208C300.352 181.456 300.472 180.841 300.712 180.361C300.96 179.882 301.295 179.526 301.719 179.294C302.143 179.054 302.626 178.935 303.17 178.935C303.801 178.935 304.357 179.07 304.836 179.342C305.324 179.614 305.708 179.994 305.987 180.481C306.275 180.969 306.419 181.544 306.419 182.208C306.419 182.871 306.275 183.451 305.987 183.946C305.708 184.434 305.324 184.814 304.836 185.085C304.357 185.357 303.801 185.493 303.17 185.493ZM299.621 187.735V179.007H301.048V180.517L301 182.22L301.119 183.922V187.735H299.621ZM303.002 184.21C303.362 184.21 303.681 184.13 303.961 183.97C304.249 183.811 304.477 183.579 304.645 183.275C304.812 182.971 304.896 182.616 304.896 182.208C304.896 181.792 304.812 181.436 304.645 181.141C304.477 180.837 304.249 180.605 303.961 180.445C303.681 180.285 303.362 180.206 303.002 180.206C302.642 180.206 302.318 180.285 302.031 180.445C301.743 180.605 301.515 180.837 301.347 181.141C301.179 181.436 301.096 181.792 301.096 182.208C301.096 182.616 301.179 182.971 301.347 183.275C301.515 183.579 301.743 183.811 302.031 183.97C302.318 184.13 302.642 184.21 303.002 184.21ZM315.922 178.935C316.433 178.935 316.885 179.034 317.277 179.234C317.676 179.434 317.988 179.742 318.212 180.158C318.436 180.565 318.548 181.093 318.548 181.74V185.409H317.049V181.932C317.049 181.365 316.925 180.941 316.677 180.661C316.429 180.381 316.074 180.241 315.61 180.241C315.282 180.241 314.99 180.313 314.735 180.457C314.487 180.601 314.291 180.813 314.147 181.093C314.011 181.373 313.943 181.728 313.943 182.16V185.409H312.445V181.932C312.445 181.365 312.321 180.941 312.073 180.661C311.825 180.381 311.469 180.241 311.006 180.241C310.678 180.241 310.386 180.313 310.131 180.457C309.883 180.601 309.687 180.813 309.543 181.093C309.407 181.373 309.339 181.728 309.339 182.16V185.409H307.84V179.007H309.267V180.709L309.015 180.206C309.231 179.79 309.543 179.474 309.951 179.258C310.366 179.042 310.838 178.935 311.366 178.935C311.965 178.935 312.485 179.082 312.924 179.378C313.372 179.674 313.668 180.122 313.811 180.721L313.224 180.517C313.432 180.038 313.775 179.654 314.255 179.366C314.735 179.078 315.29 178.935 315.922 178.935Z" fill="#E55948"></path><path d="M257.42 218.384V217.341L260.753 214.175C261.033 213.912 261.24 213.68 261.376 213.48C261.512 213.28 261.6 213.096 261.64 212.928C261.688 212.752 261.712 212.589 261.712 212.437C261.712 212.053 261.58 211.757 261.316 211.549C261.053 211.334 260.665 211.226 260.153 211.226C259.746 211.226 259.374 211.298 259.038 211.442C258.711 211.585 258.427 211.805 258.187 212.101L257.096 211.262C257.424 210.822 257.863 210.482 258.415 210.243C258.974 209.995 259.598 209.871 260.285 209.871C260.893 209.871 261.42 209.971 261.868 210.171C262.324 210.362 262.671 210.638 262.911 210.998C263.159 211.358 263.283 211.785 263.283 212.281C263.283 212.553 263.247 212.824 263.175 213.096C263.103 213.36 262.967 213.64 262.767 213.935C262.567 214.231 262.276 214.563 261.892 214.931L259.026 217.652L258.703 217.065H263.606V218.384H257.42ZM268.511 218.468C267.991 218.468 267.516 218.348 267.084 218.108C266.66 217.868 266.321 217.509 266.065 217.029C265.817 216.541 265.693 215.926 265.693 215.182C265.693 214.431 265.813 213.816 266.053 213.336C266.301 212.856 266.636 212.501 267.06 212.269C267.484 212.029 267.967 211.909 268.511 211.909C269.142 211.909 269.698 212.045 270.177 212.317C270.665 212.589 271.049 212.968 271.328 213.456C271.616 213.943 271.76 214.519 271.76 215.182C271.76 215.846 271.616 216.425 271.328 216.921C271.049 217.409 270.665 217.788 270.177 218.06C269.698 218.332 269.142 218.468 268.511 218.468ZM264.962 220.71V211.981H266.389V213.492L266.341 215.194L266.46 216.897V220.71H264.962ZM268.343 217.185C268.703 217.185 269.022 217.105 269.302 216.945C269.59 216.785 269.818 216.553 269.986 216.25C270.153 215.946 270.237 215.59 270.237 215.182C270.237 214.767 270.153 214.411 269.986 214.115C269.818 213.812 269.59 213.58 269.302 213.42C269.022 213.26 268.703 213.18 268.343 213.18C267.983 213.18 267.659 213.26 267.372 213.42C267.084 213.58 266.856 213.812 266.688 214.115C266.52 214.411 266.437 214.767 266.437 215.182C266.437 215.59 266.52 215.946 266.688 216.25C266.856 216.553 267.084 216.785 267.372 216.945C267.659 217.105 267.983 217.185 268.343 217.185ZM281.263 211.909C281.774 211.909 282.226 212.009 282.618 212.209C283.017 212.409 283.329 212.717 283.553 213.132C283.777 213.54 283.889 214.067 283.889 214.715V218.384H282.39V214.907C282.39 214.339 282.266 213.916 282.018 213.636C281.77 213.356 281.415 213.216 280.951 213.216C280.623 213.216 280.331 213.288 280.076 213.432C279.828 213.576 279.632 213.788 279.488 214.067C279.352 214.347 279.284 214.703 279.284 215.134V218.384H277.786V214.907C277.786 214.339 277.662 213.916 277.414 213.636C277.166 213.356 276.81 213.216 276.347 213.216C276.019 213.216 275.727 213.288 275.472 213.432C275.224 213.576 275.028 213.788 274.884 214.067C274.748 214.347 274.68 214.703 274.68 215.134V218.384H273.181V211.981H274.608V213.684L274.356 213.18C274.572 212.764 274.884 212.449 275.292 212.233C275.707 212.017 276.179 211.909 276.707 211.909C277.306 211.909 277.826 212.057 278.265 212.353C278.713 212.649 279.009 213.096 279.152 213.696L278.565 213.492C278.773 213.012 279.116 212.629 279.596 212.341C280.076 212.053 280.631 211.909 281.263 211.909ZM288.794 215.674V214.427H292.091V215.674H288.794ZM296.469 216.477V215.398L300.605 209.991H302.272L298.195 215.398L297.416 215.158H304.07V216.477H296.469ZM301.073 218.384V216.477L301.121 215.158V213.468H302.584V218.384H301.073ZM308.731 218.468C308.212 218.468 307.736 218.348 307.304 218.108C306.881 217.868 306.541 217.509 306.285 217.029C306.037 216.541 305.913 215.926 305.913 215.182C305.913 214.431 306.033 213.816 306.273 213.336C306.521 212.856 306.857 212.501 307.28 212.269C307.704 212.029 308.188 211.909 308.731 211.909C309.363 211.909 309.918 212.045 310.398 212.317C310.885 212.589 311.269 212.968 311.549 213.456C311.837 213.943 311.98 214.519 311.98 215.182C311.98 215.846 311.837 216.425 311.549 216.921C311.269 217.409 310.885 217.788 310.398 218.06C309.918 218.332 309.363 218.468 308.731 218.468ZM305.182 220.71V211.981H306.609V213.492L306.561 215.194L306.681 216.897V220.71H305.182ZM308.563 217.185C308.923 217.185 309.243 217.105 309.522 216.945C309.81 216.785 310.038 216.553 310.206 216.25C310.374 215.946 310.458 215.59 310.458 215.182C310.458 214.767 310.374 214.411 310.206 214.115C310.038 213.812 309.81 213.58 309.522 213.42C309.243 213.26 308.923 213.18 308.563 213.18C308.204 213.18 307.88 213.26 307.592 213.42C307.304 213.58 307.077 213.812 306.909 214.115C306.741 214.411 306.657 214.767 306.657 215.182C306.657 215.59 306.741 215.946 306.909 216.25C307.077 216.553 307.304 216.785 307.592 216.945C307.88 217.105 308.204 217.185 308.563 217.185ZM321.483 211.909C321.995 211.909 322.446 212.009 322.838 212.209C323.238 212.409 323.549 212.717 323.773 213.132C323.997 213.54 324.109 214.067 324.109 214.715V218.384H322.61V214.907C322.61 214.339 322.486 213.916 322.238 213.636C321.991 213.356 321.635 213.216 321.171 213.216C320.844 213.216 320.552 213.288 320.296 213.432C320.048 213.576 319.852 213.788 319.709 214.067C319.573 214.347 319.505 214.703 319.505 215.134V218.384H318.006V214.907C318.006 214.339 317.882 213.916 317.634 213.636C317.386 213.356 317.031 213.216 316.567 213.216C316.239 213.216 315.948 213.288 315.692 213.432C315.444 213.576 315.248 213.788 315.104 214.067C314.968 214.347 314.901 214.703 314.901 215.134V218.384H313.402V211.981H314.829V213.684L314.577 213.18C314.793 212.764 315.104 212.449 315.512 212.233C315.928 212.017 316.399 211.909 316.927 211.909C317.526 211.909 318.046 212.057 318.486 212.353C318.933 212.649 319.229 213.096 319.373 213.696L318.785 213.492C318.993 213.012 319.337 212.629 319.816 212.341C320.296 212.053 320.852 211.909 321.483 211.909Z" fill="white"></path><path d="M249.884 249.464V248.385L254.021 242.977H255.687L251.611 248.385L250.831 248.145H257.486V249.464H249.884ZM254.488 251.37V249.464L254.536 248.145V246.454H255.999V251.37H254.488ZM262.147 251.454C261.627 251.454 261.151 251.334 260.72 251.094C260.296 250.855 259.956 250.495 259.701 250.015C259.453 249.528 259.329 248.912 259.329 248.169C259.329 247.417 259.449 246.802 259.689 246.322C259.936 245.843 260.272 245.487 260.696 245.255C261.119 245.015 261.603 244.896 262.147 244.896C262.778 244.896 263.334 245.031 263.813 245.303C264.301 245.575 264.684 245.955 264.964 246.442C265.252 246.93 265.396 247.505 265.396 248.169C265.396 248.832 265.252 249.412 264.964 249.907C264.684 250.395 264.301 250.775 263.813 251.046C263.334 251.318 262.778 251.454 262.147 251.454ZM258.597 253.696V244.967H260.024V246.478L259.976 248.181L260.096 249.883V253.696H258.597ZM261.979 250.171C262.338 250.171 262.658 250.091 262.938 249.931C263.226 249.771 263.453 249.54 263.621 249.236C263.789 248.932 263.873 248.576 263.873 248.169C263.873 247.753 263.789 247.397 263.621 247.102C263.453 246.798 263.226 246.566 262.938 246.406C262.658 246.246 262.338 246.166 261.979 246.166C261.619 246.166 261.295 246.246 261.007 246.406C260.72 246.566 260.492 246.798 260.324 247.102C260.156 247.397 260.072 247.753 260.072 248.169C260.072 248.576 260.156 248.932 260.324 249.236C260.492 249.54 260.72 249.771 261.007 249.931C261.295 250.091 261.619 250.171 261.979 250.171ZM274.898 244.896C275.41 244.896 275.862 244.995 276.253 245.195C276.653 245.395 276.965 245.703 277.189 246.118C277.412 246.526 277.524 247.054 277.524 247.701V251.37H276.026V247.893C276.026 247.325 275.902 246.902 275.654 246.622C275.406 246.342 275.05 246.202 274.587 246.202C274.259 246.202 273.967 246.274 273.711 246.418C273.464 246.562 273.268 246.774 273.124 247.054C272.988 247.333 272.92 247.689 272.92 248.121V251.37H271.421V247.893C271.421 247.325 271.297 246.902 271.05 246.622C270.802 246.342 270.446 246.202 269.983 246.202C269.655 246.202 269.363 246.274 269.107 246.418C268.859 246.562 268.664 246.774 268.52 247.054C268.384 247.333 268.316 247.689 268.316 248.121V251.37H266.817V244.967H268.244V246.67L267.992 246.166C268.208 245.751 268.52 245.435 268.927 245.219C269.343 245.003 269.815 244.896 270.342 244.896C270.942 244.896 271.461 245.043 271.901 245.339C272.349 245.635 272.644 246.083 272.788 246.682L272.201 246.478C272.409 245.999 272.752 245.615 273.232 245.327C273.711 245.039 274.267 244.896 274.898 244.896ZM282.429 248.66V247.413H285.727V248.66H282.429ZM293.594 251.49C292.898 251.49 292.295 251.386 291.783 251.178C291.272 250.97 290.876 250.679 290.596 250.303C290.316 249.919 290.177 249.472 290.177 248.96C290.177 248.449 290.312 248.017 290.584 247.665C290.856 247.314 291.248 247.046 291.759 246.862C292.271 246.678 292.882 246.586 293.594 246.586C294.305 246.586 294.917 246.678 295.428 246.862C295.948 247.046 296.343 247.317 296.615 247.677C296.895 248.029 297.035 248.457 297.035 248.96C297.035 249.472 296.891 249.919 296.603 250.303C296.323 250.679 295.924 250.97 295.404 251.178C294.893 251.386 294.289 251.49 293.594 251.49ZM293.594 250.267C294.169 250.267 294.625 250.147 294.961 249.907C295.296 249.668 295.464 249.336 295.464 248.912C295.464 248.497 295.296 248.169 294.961 247.929C294.625 247.689 294.169 247.569 293.594 247.569C293.018 247.569 292.567 247.689 292.239 247.929C291.911 248.169 291.747 248.497 291.747 248.912C291.747 249.336 291.911 249.668 292.239 249.907C292.567 250.147 293.018 250.267 293.594 250.267ZM293.594 247.401C292.946 247.401 292.391 247.317 291.927 247.15C291.463 246.974 291.104 246.722 290.848 246.394C290.6 246.059 290.476 245.659 290.476 245.195C290.476 244.716 290.604 244.304 290.86 243.96C291.124 243.609 291.491 243.337 291.963 243.145C292.435 242.953 292.978 242.857 293.594 242.857C294.217 242.857 294.765 242.953 295.236 243.145C295.708 243.337 296.076 243.609 296.339 243.96C296.603 244.304 296.735 244.716 296.735 245.195C296.735 245.659 296.607 246.059 296.351 246.394C296.104 246.722 295.744 246.974 295.272 247.15C294.801 247.317 294.241 247.401 293.594 247.401ZM293.594 246.442C294.089 246.442 294.481 246.338 294.769 246.13C295.056 245.915 295.2 245.627 295.2 245.267C295.2 244.892 295.052 244.6 294.757 244.392C294.461 244.184 294.073 244.08 293.594 244.08C293.114 244.08 292.73 244.184 292.443 244.392C292.155 244.6 292.011 244.892 292.011 245.267C292.011 245.627 292.151 245.915 292.431 246.13C292.718 246.338 293.106 246.442 293.594 246.442ZM302.051 251.454C301.531 251.454 301.056 251.334 300.624 251.094C300.2 250.855 299.861 250.495 299.605 250.015C299.357 249.528 299.233 248.912 299.233 248.169C299.233 247.417 299.353 246.802 299.593 246.322C299.841 245.843 300.176 245.487 300.6 245.255C301.024 245.015 301.507 244.896 302.051 244.896C302.682 244.896 303.238 245.031 303.717 245.303C304.205 245.575 304.589 245.955 304.868 246.442C305.156 246.93 305.3 247.505 305.3 248.169C305.3 248.832 305.156 249.412 304.868 249.907C304.589 250.395 304.205 250.775 303.717 251.046C303.238 251.318 302.682 251.454 302.051 251.454ZM298.502 253.696V244.967H299.929V246.478L299.881 248.181L300 249.883V253.696H298.502ZM301.883 250.171C302.243 250.171 302.562 250.091 302.842 249.931C303.13 249.771 303.358 249.54 303.526 249.236C303.693 248.932 303.777 248.576 303.777 248.169C303.777 247.753 303.693 247.397 303.526 247.102C303.358 246.798 303.13 246.566 302.842 246.406C302.562 246.246 302.243 246.166 301.883 246.166C301.523 246.166 301.199 246.246 300.912 246.406C300.624 246.566 300.396 246.798 300.228 247.102C300.06 247.397 299.976 247.753 299.976 248.169C299.976 248.576 300.06 248.932 300.228 249.236C300.396 249.54 300.624 249.771 300.912 249.931C301.199 250.091 301.523 250.171 301.883 250.171ZM314.803 244.896C315.314 244.896 315.766 244.995 316.158 245.195C316.557 245.395 316.869 245.703 317.093 246.118C317.317 246.526 317.428 247.054 317.428 247.701V251.37H315.93V247.893C315.93 247.325 315.806 246.902 315.558 246.622C315.31 246.342 314.955 246.202 314.491 246.202C314.163 246.202 313.871 246.274 313.616 246.418C313.368 246.562 313.172 246.774 313.028 247.054C312.892 247.333 312.824 247.689 312.824 248.121V251.37H311.326V247.893C311.326 247.325 311.202 246.902 310.954 246.622C310.706 246.342 310.35 246.202 309.887 246.202C309.559 246.202 309.267 246.274 309.012 246.418C308.764 246.562 308.568 246.774 308.424 247.054C308.288 247.333 308.22 247.689 308.22 248.121V251.37H306.721V244.967H308.148V246.67L307.896 246.166C308.112 245.751 308.424 245.435 308.832 245.219C309.247 245.003 309.719 244.896 310.246 244.896C310.846 244.896 311.366 245.043 311.805 245.339C312.253 245.635 312.549 246.083 312.692 246.682L312.105 246.478C312.313 245.999 312.656 245.615 313.136 245.327C313.616 245.039 314.171 244.896 314.803 244.896Z" fill="#E55948"></path><path d="M319.415 81.9639H255.303C251.55 81.9639 248.508 85.0071 248.508 88.7612V145.263C248.508 149.017 251.55 152.06 255.303 152.06H319.415C323.168 152.06 326.21 149.017 326.21 145.263V88.7612C326.21 85.0071 323.168 81.9639 319.415 81.9639Z" fill="#275798"></path><path d="M319.415 81.9639H255.303C251.55 81.9639 248.508 85.0071 248.508 88.7612V145.263C248.508 149.017 251.55 152.06 255.303 152.06H319.415C323.168 152.06 326.21 149.017 326.21 145.263V88.7612C326.21 85.0071 323.168 81.9639 319.415 81.9639Z" fill="#5F9EF3"></path><path d="M326.212 99.1003V88.7723C326.212 86.9685 325.497 85.2384 324.223 83.9619C322.949 82.6854 321.221 81.9668 319.417 81.9639H255.316C254.421 81.961 253.533 82.135 252.705 82.4758C251.877 82.8167 251.124 83.3177 250.489 83.9502C249.855 84.5827 249.352 85.3343 249.008 86.1617C248.665 86.9892 248.488 87.8763 248.488 88.7723V99.1003H326.212Z" fill="#275798"></path><path d="M265.09 106.877H258.669C258.086 106.877 257.613 107.35 257.613 107.933V114.356C257.613 114.939 258.086 115.412 258.669 115.412H265.09C265.673 115.412 266.145 114.939 266.145 114.356V107.933C266.145 107.35 265.673 106.877 265.09 106.877Z" fill="white"></path><path d="M281.781 106.877H275.36C274.777 106.877 274.305 107.35 274.305 107.933V114.356C274.305 114.939 274.777 115.412 275.36 115.412H281.781C282.364 115.412 282.837 114.939 282.837 114.356V107.933C282.837 107.35 282.364 106.877 281.781 106.877Z" fill="white"></path><path d="M298.473 106.877H292.052C291.469 106.877 290.996 107.35 290.996 107.933V114.356C290.996 114.939 291.469 115.412 292.052 115.412H298.473C299.056 115.412 299.528 114.939 299.528 114.356V107.933C299.528 107.35 299.056 106.877 298.473 106.877Z" fill="white"></path><path d="M315.164 106.877H308.743C308.16 106.877 307.688 107.35 307.688 107.933V114.356C307.688 114.939 308.16 115.412 308.743 115.412H315.164C315.747 115.412 316.22 114.939 316.22 114.356V107.933C316.22 107.35 315.747 106.877 315.164 106.877Z" fill="white"></path><path d="M265.09 121.308H258.669C258.086 121.308 257.613 121.78 257.613 122.364V128.787C257.613 129.37 258.086 129.843 258.669 129.843H265.09C265.673 129.843 266.145 129.37 266.145 128.787V122.364C266.145 121.78 265.673 121.308 265.09 121.308Z" fill="white"></path><path d="M281.781 121.308H275.36C274.777 121.308 274.305 121.78 274.305 122.364V128.787C274.305 129.37 274.777 129.843 275.36 129.843H281.781C282.364 129.843 282.837 129.37 282.837 128.787V122.364C282.837 121.78 282.364 121.308 281.781 121.308Z" fill="white"></path><path d="M298.473 121.308H292.052C291.469 121.308 290.996 121.78 290.996 122.364V128.787C290.996 129.37 291.469 129.843 292.052 129.843H298.473C299.056 129.843 299.528 129.37 299.528 128.787V122.364C299.528 121.78 299.056 121.308 298.473 121.308Z" fill="#E55948"></path><path d="M315.164 121.308H308.743C308.16 121.308 307.688 121.78 307.688 122.364V128.787C307.688 129.37 308.16 129.843 308.743 129.843H315.164C315.747 129.843 316.22 129.37 316.22 128.787V122.364C316.22 121.78 315.747 121.308 315.164 121.308Z" fill="white"></path><path d="M265.09 135.738H258.669C258.086 135.738 257.613 136.211 257.613 136.794V143.218C257.613 143.801 258.086 144.273 258.669 144.273H265.09C265.673 144.273 266.145 143.801 266.145 143.218V136.794C266.145 136.211 265.673 135.738 265.09 135.738Z" fill="white"></path><path d="M281.781 135.738H275.36C274.777 135.738 274.305 136.211 274.305 136.794V143.218C274.305 143.801 274.777 144.273 275.36 144.273H281.781C282.364 144.273 282.837 143.801 282.837 143.218V136.794C282.837 136.211 282.364 135.738 281.781 135.738Z" fill="white"></path><path d="M298.473 135.738H292.052C291.469 135.738 290.996 136.211 290.996 136.794V143.218C290.996 143.801 291.469 144.273 292.052 144.273H298.473C299.056 144.273 299.528 143.801 299.528 143.218V136.794C299.528 136.211 299.056 135.738 298.473 135.738Z" fill="white"></path><path d="M315.164 135.738H308.743C308.16 135.738 307.688 136.211 307.688 136.794V143.218C307.688 143.801 308.16 144.273 308.743 144.273H315.164C315.747 144.273 316.22 143.801 316.22 143.218V136.794C316.22 136.211 315.747 135.738 315.164 135.738Z" fill="white"></path><path d="M271.568 76.9373C271.568 75.4855 270.392 74.3086 268.94 74.3086C267.489 74.3086 266.312 75.4855 266.312 76.9373V86.9904C266.312 88.4422 267.489 89.6191 268.94 89.6191C270.392 89.6191 271.568 88.4422 271.568 86.9904V76.9373Z" fill="#5F9EF3"></path><path d="M309.908 76.9373C309.908 75.4855 308.731 74.3086 307.28 74.3086C305.829 74.3086 304.652 75.4855 304.652 76.9373V86.9904C304.652 88.4422 305.829 89.6191 307.28 89.6191C308.731 89.6191 309.908 88.4422 309.908 86.9904V76.9373Z" fill="#5F9EF3"></path><path d="M295.261 133.307C299.53 133.307 302.99 129.845 302.99 125.575C302.99 121.305 299.53 117.843 295.261 117.843C290.992 117.843 287.531 121.305 287.531 125.575C287.531 129.845 290.992 133.307 295.261 133.307Z" stroke="#E55948" stroke-width="1.54" stroke-miterlimit="10"></path><path d="M250.952 212.125L248.346 209.519L242.343 215.524L239.484 212.664L236.867 215.271L242.332 220.737L242.343 220.726L242.354 220.737L250.952 212.125Z" fill="white"></path><path d="M181.418 289.636C182.295 288.458 182.769 287.029 182.769 285.561C182.769 284.092 182.295 282.663 181.418 281.485V280.814H208.796C210.302 280.814 211.522 282.948 211.522 285.566C211.522 288.184 210.302 290.307 208.796 290.307H181.418V289.636Z" fill="#679FEC"></path><path d="M194.051 278.647C194.901 275.997 194.901 273.147 194.051 270.497V269.826H227.696C228.41 269.826 231.104 271.949 231.104 274.578C231.104 277.206 228.41 279.318 227.696 279.318H194.051V278.647Z" fill="#679FEC"></path><path d="M245.598 411.9V297.841" stroke="#679FEC" stroke-width="4.5" stroke-miterlimit="10" stroke-linecap="round"></path><path d="M106.156 411.9V297.841" stroke="#679FEC" stroke-width="4.5" stroke-miterlimit="10" stroke-linecap="round"></path><path d="M187.895 411.9V297.841" stroke="#679FEC" stroke-width="4.5" stroke-miterlimit="10" stroke-linecap="round"></path><path d="M255.394 294.959H99.7148" stroke="#679FEC" stroke-width="7.5" stroke-linecap="round" stroke-linejoin="round"></path><path d="M141.989 290.834H156.722C157.597 290.895 158.464 290.631 159.158 290.094C159.851 289.556 160.323 288.782 160.483 287.92L166.09 261.995H132.621L138.229 287.92C138.388 288.782 138.86 289.556 139.553 290.094C140.247 290.631 141.114 290.895 141.989 290.834Z" fill="#487EC6"></path><path d="M158.019 261.841C162.593 255.748 157.711 251.348 165.276 232.386C160.273 236.588 156.557 243.297 155.82 247.784C155.82 247.784 156.689 231.286 159.888 223.774C153.885 230.252 152.654 239.546 152.654 239.546C152.654 239.546 150.026 220.683 152.522 215.602C148.564 220.298 147.915 230.626 147.915 230.626C147.915 230.626 146.09 221.893 146.2 220.474C144.836 225.488 144.499 230.726 145.21 235.873C143.836 230.851 141.716 226.064 138.921 221.673C143.319 242.373 143.902 247.444 143.891 250.083C142.099 244.061 139.376 238.357 135.82 233.178C140.306 248.917 137.437 254.659 139.636 261.775L158.019 261.841Z" fill="#679FEC"></path><path d="M164.465 269.375H134.251C134.057 269.374 133.87 269.307 133.72 269.185C133.57 269.063 133.466 268.893 133.426 268.704L132.162 262.875C132.133 262.751 132.134 262.622 132.162 262.498C132.19 262.375 132.246 262.259 132.325 262.16C132.405 262.06 132.505 261.98 132.62 261.925C132.734 261.87 132.859 261.841 132.986 261.841H165.729C165.856 261.843 165.98 261.873 166.093 261.929C166.207 261.985 166.306 262.065 166.385 262.164C166.464 262.262 166.52 262.377 166.549 262.5C166.578 262.623 166.58 262.751 166.554 262.875L165.29 268.704C165.249 268.893 165.146 269.063 164.996 269.185C164.846 269.307 164.658 269.374 164.465 269.375Z" fill="#487EC6"></path><path d="M181.418 290.307H232.281C232.904 290.308 233.522 290.186 234.098 289.949C234.674 289.711 235.198 289.362 235.639 288.922C236.08 288.482 236.43 287.959 236.669 287.383C236.908 286.807 237.031 286.189 237.031 285.566C237.031 284.306 236.531 283.097 235.64 282.206C234.749 281.315 233.541 280.814 232.281 280.814H181.418" stroke="#487EC6" stroke-width="1.5" stroke-miterlimit="10" stroke-linecap="round"></path><path d="M209.18 285.566C209.18 284.307 208.681 283.1 207.793 282.21C206.905 281.319 205.699 280.817 204.441 280.814H232.237C232.879 280.783 233.521 280.883 234.124 281.108C234.726 281.332 235.277 281.677 235.742 282.12C236.208 282.564 236.578 283.098 236.831 283.689C237.085 284.28 237.215 284.917 237.215 285.56C237.215 286.203 237.085 286.84 236.831 287.431C236.578 288.022 236.208 288.556 235.742 289C235.277 289.444 234.726 289.788 234.124 290.013C233.521 290.237 232.879 290.337 232.237 290.306H204.441C205.698 290.306 206.904 289.807 207.792 288.918C208.681 288.029 209.18 286.823 209.18 285.566Z" fill="#487EC6" stroke="#487EC6" stroke-width="1.5" stroke-miterlimit="10"></path><path d="M193.941 279.373H226.355C226.978 279.374 227.595 279.253 228.172 279.015C228.748 278.778 229.272 278.429 229.713 277.988C230.154 277.548 230.504 277.025 230.743 276.449C230.982 275.873 231.105 275.256 231.105 274.632C231.106 274.008 230.984 273.39 230.746 272.812C230.508 272.235 230.158 271.711 229.717 271.269C229.275 270.828 228.751 270.478 228.174 270.24C227.597 270.001 226.979 269.879 226.355 269.881H193.941" stroke="#487EC6" stroke-width="1.5" stroke-miterlimit="10" stroke-linecap="round"></path><path opacity="0.2" d="M365.013 231.286H209.719V239.117H365.013V231.286Z" fill="#275798"></path><path d="M465.488 278.12L466.181 296.51C466.181 296.51 472.954 291.01 471.294 280.099C469.633 269.189 465.488 278.12 465.488 278.12Z" fill="#F2AC88"></path><path d="M474.712 411.9L471.381 400.67H462.431L454.141 411.9H474.712Z" fill="#E55948"></path><path d="M413.974 411.9L410.654 400.67H403.815L389.07 411.9H413.974Z" fill="#E55948"></path><path d="M455.262 266.449C465.158 299.259 466.466 347.842 478.934 402.836L453.646 402.616C453.646 402.616 442.156 347.237 433.602 306.793C421.419 341.924 416.548 402.726 416.548 402.726H392.359C398.693 336.183 398.22 305.628 407.357 265.481L455.262 266.449Z" fill="#275798"></path><path d="M423.685 197.981L422.256 188.566C422.256 188.566 411.162 189.842 414.658 163.082C415.329 158.011 420.222 155.03 426.269 155.217C445.378 155.833 439.617 175.796 439.617 175.796L437.517 185.695L441.541 202.557L423.685 197.981Z" fill="#F2AC88"></path><path d="M357.043 222.662L338.648 221.397C340.749 223.718 343.342 225.539 346.238 226.727C349.134 227.915 352.258 228.439 355.383 228.261C366.224 227.766 357.043 222.662 357.043 222.662Z" fill="#F2AC88"></path><path d="M401.516 280.528L409.114 222.234C409.114 222.234 386.915 237.478 353.886 230.329C353.413 229.944 354.26 221.211 354.26 221.211C354.26 221.211 388.894 216.305 409.554 200.258C422.451 190.282 434.304 191.745 445.09 194.681C455.876 197.618 475.513 209.288 473.281 282.904C470.108 283.172 466.915 283.091 463.759 282.662C463.759 282.662 462.528 254.417 458.954 240.085C457.943 253.053 460.252 279.373 460.252 279.373L401.516 280.528Z" fill="#6DC7B7"></path><path d="M414.8 162.334C408.126 161.465 411.128 150.917 416.999 151.005C422.87 151.093 425.179 152.687 428.786 149.509C432.392 146.33 432.645 145.703 438.615 150.213C444.586 154.722 438.373 153.963 442.442 157.296C446.51 160.629 453.206 165.402 448.665 169.56C444.124 173.717 443.497 174.762 443.948 178.194C444.839 185.046 439.66 185.596 437.538 185.783C434.635 186.036 432.678 184.111 430.842 181.021C429.006 177.93 426.191 177.93 425.63 173.024C425.069 168.119 423.013 167.393 421.507 166.128C420.001 164.863 418.406 162.784 414.8 162.334Z" fill="#E55948"></path></svg> 