<?xml version="1.0" encoding="UTF-8"?> <svg xmlns="http://www.w3.org/2000/svg" width="541" height="450" viewBox="0 0 541 450" fill="none"><path d="M286.657 408.061C415.707 408.061 520.323 402.383 520.323 395.379C520.323 388.375 415.707 382.697 286.657 382.697C157.608 382.697 52.9922 388.375 52.9922 395.379C52.9922 402.383 157.608 408.061 286.657 408.061Z" fill="#DAE4F3"></path><path d="M485.361 177.688C501.818 274.776 408.515 393.179 249.88 364.934C162.917 349.448 187.443 333.213 112.963 336.788C10.6226 341.693 -32.4625 138.455 117.785 109.924C349.964 65.8617 456.565 7.78728 485.361 177.688Z" fill="#DAE4F3"></path><path d="M104.245 321.301C104.421 323.985 98.4766 380.641 98.4766 380.641H105.312L121.824 321.246L104.245 321.301Z" fill="#F2AC88"></path><path d="M94.7109 391.871L98.4646 380.641H105.312L119.655 391.871H94.7109Z" fill="#E55948"></path><path d="M146.152 321.301C146.714 323.985 148.827 380.641 148.827 380.641H155.674L163.776 321.246L146.152 321.301Z" fill="#F2AC88"></path><path d="M146.67 391.871L148.827 380.641H155.674L171.603 391.871H146.67Z" fill="#E55948"></path><path d="M120.438 230.659C94.6684 265.339 102.209 304.429 95.3398 357.62H119.656C119.656 357.62 129.718 278.306 133.967 278.196C138.216 278.086 138.799 357.62 138.799 357.62H163.468C171.548 314.328 172.164 252.844 158.261 230.659H120.438Z" fill="#275798"></path><path d="M208.357 194.318L226.487 191.723C224.723 194.213 222.387 196.244 219.675 197.645C216.962 199.046 213.953 199.776 210.9 199.774C200.013 200.071 208.357 194.318 208.357 194.318Z" fill="#F2AC88"></path><path d="M186.122 146.836L194.928 131.723C192.044 132.34 189.353 133.65 187.09 135.539C184.826 137.429 183.058 139.842 181.939 142.568C177.833 152.115 186.122 146.836 186.122 146.836Z" fill="#F2AC88"></path><path d="M149.224 209.145L153.528 186.465C153.528 186.465 176.931 179.932 188.863 145.901C188.863 145.318 180.905 141.193 180.905 141.193C180.905 141.193 155.74 172.771 128.529 172.409C115.98 175.631 134.297 187.455 130.257 197.629C126.217 207.803 119.249 205.955 140.472 217.174C152.152 223.334 145.756 223.565 145.756 223.565L149.224 209.145Z" fill="#6DC7B7"></path><path d="M373.532 39.9152H263.761C251.14 39.9152 240.908 50.1382 240.908 62.749V334.786C240.908 347.397 251.14 357.62 263.761 357.62H373.532C386.153 357.62 396.384 347.397 396.384 334.786V62.749C396.384 50.1382 386.153 39.9152 373.532 39.9152Z" fill="#5F9EF3"></path><path d="M373.709 49.4072H263.596C254.866 49.4072 247.789 56.4787 247.789 65.2017V332.322C247.789 341.045 254.866 348.117 263.596 348.117H373.709C382.439 348.117 389.516 341.045 389.516 332.322V65.2017C389.516 56.4787 382.439 49.4072 373.709 49.4072Z" fill="white"></path><path d="M345.373 46.1956C344.891 45.6906 344.312 45.2881 343.671 45.0122C343.03 44.7362 342.339 44.5925 341.641 44.5897H301.33C300.632 44.5906 299.941 44.7335 299.299 45.0095C298.658 45.2856 298.079 45.6891 297.598 46.1956H283.365C283.365 46.1956 283.971 49.4293 289.089 49.4293C294.208 49.4293 296.167 49.7482 296.167 54.1588V58.5584C296.167 59.9265 296.711 61.2386 297.68 62.206C298.648 63.1734 299.961 63.7169 301.33 63.7169H341.641C343.006 63.7053 344.31 63.1533 345.267 62.1821C346.225 61.2108 346.758 59.8997 346.749 58.5364V54.1368C346.749 49.7372 348.708 49.4073 353.827 49.4073C358.946 49.4073 359.606 46.1956 359.606 46.1956H345.373Z" fill="#5F9EF3"></path><path d="M371.638 200.786V204.085H368.336" stroke="#487EC6" stroke-width="1.5" stroke-miterlimit="10"></path><path d="M361.709 204.085H272.27" stroke="#487EC6" stroke-width="1.5" stroke-miterlimit="10" stroke-dasharray="6.02 6.02"></path><path d="M268.957 204.085H265.654V200.786" stroke="#487EC6" stroke-width="1.5" stroke-miterlimit="10"></path><path d="M265.654 194.164V104.798" stroke="#487EC6" stroke-width="1.5" stroke-miterlimit="10" stroke-dasharray="6.02 6.02"></path><path d="M265.654 101.487V98.1876H268.957" stroke="#487EC6" stroke-width="1.5" stroke-miterlimit="10"></path><path d="M275.582 98.1876H365.021" stroke="#487EC6" stroke-width="1.5" stroke-miterlimit="10" stroke-dasharray="6.02 6.02"></path><path d="M368.336 98.1876H371.638V101.487" stroke="#487EC6" stroke-width="1.5" stroke-miterlimit="10"></path><path d="M371.639 108.109V197.475" stroke="#487EC6" stroke-width="1.5" stroke-miterlimit="10" stroke-dasharray="6.02 6.02"></path><path d="M258.818 61.1981H275.143" stroke="#5F9EF3" stroke-width="1.71" stroke-linecap="round" stroke-linejoin="round"></path><path d="M258.818 67.0056H275.143" stroke="#5F9EF3" stroke-width="1.71" stroke-linecap="round" stroke-linejoin="round"></path><path d="M258.818 72.824H275.143" stroke="#5F9EF3" stroke-width="1.71" stroke-linecap="round" stroke-linejoin="round"></path><path d="M147.165 174.509V164.984C147.165 164.984 157.139 165.677 150.886 139.016C149.235 134.066 137.269 139.016 137.269 139.016L129.432 153.853L131.908 164.566L136.499 178.183L147.165 174.509Z" fill="#F2AC88"></path><path d="M158.283 230.659L158.812 202.062C158.812 202.062 179.22 215.26 212.64 201.666C213.048 201.248 210.901 192.592 210.901 192.592C210.901 192.592 170.546 194.659 152.812 174.047C142.079 166.788 133.824 170.33 123.509 174.047C113.195 177.765 112.072 182.736 117.741 206.087C119.63 214.12 120.528 222.353 120.416 230.604L158.283 230.659Z" fill="#6DC7B7"></path><path d="M143.873 129.161C135.199 125.454 124.884 129.293 120.756 136.86C116.628 144.427 100.083 146.506 108.647 160.387C115.693 171.815 100.678 173.036 100.678 178.216C100.678 187.147 105.906 188.049 112.346 191.723C126.469 199.785 124.455 189.952 132.337 189.226C140.218 188.5 143.102 199.785 146.79 195.121C152.008 188.522 146.416 182.671 143.884 175.653C141.352 168.636 140.581 160.904 141.814 154.755C143.047 148.607 146.79 141.974 150.918 139.093C155.046 136.211 148.859 131.294 143.873 129.161Z" fill="#E55948"></path><path d="M307.544 104.881L204.83 78.7784L178.706 181.409L281.42 207.512L307.544 104.881Z" fill="#E55948"></path><path d="M240.776 152.379L233.236 182L212.75 163.851L216.074 150.774" stroke="white" stroke-width="2.25" stroke-linecap="round" stroke-linejoin="round"></path><path d="M230.33 163.4L209.844 145.252L220.29 134.231L240.776 152.379L230.33 163.4Z" stroke="white" stroke-width="2.25" stroke-linecap="round" stroke-linejoin="round"></path><path d="M240.777 152.379L233.236 182L259.909 175.84L263.233 162.751" stroke="white" stroke-width="2.25" stroke-linecap="round" stroke-linejoin="round"></path><path d="M244.685 167.041L271.346 160.882L267.45 146.22L240.777 152.379L244.685 167.041Z" stroke="white" stroke-width="2.25" stroke-linecap="round" stroke-linejoin="round"></path><path d="M242.352 146.198L251.114 111.771" stroke="white" stroke-width="2.25" stroke-linecap="round" stroke-linejoin="round"></path><path d="M252.059 111.892C254.193 111.892 255.923 110.164 255.923 108.032C255.923 105.899 254.193 104.171 252.059 104.171C249.925 104.171 248.195 105.899 248.195 108.032C248.195 110.164 249.925 111.892 252.059 111.892Z" stroke="white" stroke-width="2.25" stroke-linecap="round" stroke-linejoin="round"></path><path d="M225.057 119.361C227.191 119.361 228.921 117.632 228.921 115.5C228.921 113.368 227.191 111.639 225.057 111.639C222.923 111.639 221.193 113.368 221.193 115.5C221.193 117.632 222.923 119.361 225.057 119.361Z" stroke="white" stroke-width="2.25" stroke-linecap="round" stroke-linejoin="round"></path><path d="M233.841 139.401L237.187 126.279L228.293 118.151" stroke="white" stroke-width="2.25" stroke-linecap="round" stroke-linejoin="round"></path><path d="M272.391 131.393C274.525 131.393 276.255 129.665 276.255 127.533C276.255 125.401 274.525 123.672 272.391 123.672C270.257 123.672 268.527 125.401 268.527 127.533C268.527 129.665 270.257 131.393 272.391 131.393Z" stroke="white" stroke-width="2.25" stroke-linecap="round" stroke-linejoin="round"></path><path d="M253.248 144.328L256.594 131.217L268.285 128.314" stroke="white" stroke-width="2.25" stroke-linecap="round" stroke-linejoin="round"></path><path d="M220.291 134.231L230 132.955" stroke="white" stroke-width="2.25" stroke-linecap="round" stroke-linejoin="round"></path><path d="M267.449 146.22L259.523 140.457" stroke="white" stroke-width="2.25" stroke-linecap="round" stroke-linejoin="round"></path><path d="M306.748 254.494H308.146C308.368 254.485 308.587 254.549 308.77 254.676C308.953 254.803 309.089 254.986 309.158 255.198C309.274 255.478 309.373 255.764 309.456 256.056C310.799 261.35 312.138 266.64 313.474 271.927C313.487 272.009 313.505 272.09 313.529 272.169L313.771 272.664C313.771 272.488 313.892 272.323 313.936 272.147C315.147 267.014 316.361 261.881 317.58 256.748C317.679 256.286 317.789 255.836 317.899 255.385C317.943 255.126 318.079 254.892 318.281 254.725C318.482 254.558 318.737 254.468 319 254.472C319.902 254.472 320.805 254.472 321.708 254.472C322.357 254.472 322.731 254.934 322.907 255.649C323.641 258.75 324.375 261.848 325.109 264.943C325.703 267.45 326.302 269.958 326.903 272.466C326.94 272.573 326.988 272.677 327.046 272.774C327.112 272.693 327.167 272.604 327.211 272.51C327.498 271.41 327.784 270.31 328.059 269.21C329.167 264.906 330.268 260.605 331.361 256.309C331.45 255.99 331.549 255.671 331.659 255.363C331.724 255.091 331.879 254.85 332.099 254.678C332.319 254.506 332.59 254.414 332.87 254.417C333.75 254.417 334.631 254.417 335.5 254.417C335.941 254.417 336.139 254.67 336.117 255.132C336.086 255.431 336.024 255.726 335.93 256.012L332.627 266.681L329.688 276.107C329.336 277.207 329.039 277.448 327.839 277.459C327.212 277.459 326.573 277.459 325.946 277.459C324.966 277.459 324.658 277.206 324.393 276.206C324.019 274.776 323.689 273.335 323.348 271.894C322.544 268.594 321.752 265.295 320.959 261.995C320.805 261.357 320.662 260.708 320.508 260.07C320.464 259.96 320.405 259.856 320.332 259.762C320.266 259.87 320.21 259.984 320.166 260.103C319.781 261.731 319.407 263.403 319.011 264.987L316.6 274.985C316.49 275.414 316.424 275.854 316.314 276.272C316.301 276.452 316.253 276.627 316.171 276.788C316.088 276.949 315.974 277.091 315.835 277.206C315.696 277.321 315.535 277.407 315.362 277.458C315.189 277.509 315.007 277.525 314.828 277.503C314.112 277.503 313.397 277.503 312.681 277.503C312.489 277.53 312.293 277.518 312.105 277.469C311.918 277.419 311.742 277.333 311.587 277.216C311.433 277.098 311.303 276.951 311.206 276.784C311.108 276.616 311.045 276.431 311.019 276.239L308.443 267.824L304.843 256.012C304.447 254.725 304.623 254.483 305.999 254.483H306.737L306.748 254.494Z" fill="#5F9EF3"></path><path d="M302.21 271.025C302.228 272.292 302.569 273.534 303.201 274.633C303.285 274.774 303.359 274.921 303.421 275.073C303.513 275.259 303.535 275.472 303.485 275.673C303.434 275.874 303.314 276.051 303.146 276.173C302.519 276.613 301.88 277.053 301.22 277.438C301.116 277.51 300.999 277.561 300.875 277.586C300.751 277.612 300.623 277.612 300.5 277.586C300.376 277.56 300.259 277.509 300.155 277.436C300.052 277.364 299.965 277.27 299.899 277.163C299.393 276.484 298.922 275.779 298.49 275.051C298.181 274.534 298.203 274.501 297.785 274.941C296.346 276.534 294.403 277.586 292.281 277.921C290.682 278.237 289.026 278.111 287.493 277.558C286.381 277.171 285.407 276.466 284.691 275.532C283.975 274.598 283.549 273.475 283.464 272.301C283.307 271.383 283.334 270.443 283.544 269.536C283.753 268.628 284.141 267.772 284.685 267.015C285.229 266.259 285.918 265.618 286.712 265.13C287.505 264.642 288.388 264.317 289.309 264.173C291.47 263.736 293.698 263.762 295.848 264.25C296.387 264.349 296.949 264.437 297.466 264.569C297.785 264.646 297.862 264.503 297.851 264.239C297.785 263.04 297.851 261.819 297.642 260.631C297.575 259.924 297.282 259.258 296.806 258.731C296.33 258.204 295.697 257.844 295 257.705C293.096 257.239 291.104 257.281 289.221 257.826C288.241 258.09 287.295 258.453 286.326 258.772C286.151 258.85 285.97 258.916 285.787 258.97C285.269 259.113 284.983 258.97 284.95 258.409C284.917 257.848 284.95 257.309 284.95 256.671C284.952 256.433 285.025 256.201 285.16 256.005C285.296 255.809 285.487 255.658 285.709 255.572C287.026 254.884 288.441 254.402 289.904 254.142C291.551 253.838 293.233 253.764 294.901 253.922C295.969 254 297.017 254.249 298.005 254.659C299.088 255.115 300.025 255.859 300.716 256.808C301.406 257.758 301.824 258.878 301.924 260.048C302.036 260.835 302.099 261.629 302.111 262.424C302.177 263.722 302.188 269.474 302.21 271.025ZM291.995 267.022C291.255 267.079 290.533 267.28 289.87 267.615C289.134 268.029 288.555 268.673 288.22 269.448C287.886 270.223 287.816 271.086 288.021 271.905C288.127 272.6 288.458 273.24 288.963 273.729C289.468 274.218 290.119 274.527 290.817 274.611C291.942 274.805 293.099 274.704 294.173 274.319C295.248 273.933 296.204 273.276 296.949 272.411C297.286 272.048 297.525 271.605 297.642 271.124C297.829 270.079 297.873 269.001 297.983 267.945C297.983 267.615 297.829 267.527 297.543 267.494C295.718 267.127 293.856 266.969 291.995 267.022Z" fill="#5F9EF3"></path><path d="M345.648 278.196C343.63 278.149 341.635 277.758 339.748 277.042C339.384 276.915 339.043 276.733 338.735 276.503C338.426 276.281 338.197 275.964 338.086 275.601C338.003 274.976 338.003 274.344 338.086 273.72C338.086 273.203 338.471 273.016 338.966 273.159C339.257 273.238 339.54 273.341 339.814 273.467C342.143 274.481 344.699 274.861 347.222 274.567C348.073 274.488 348.893 274.205 349.611 273.742C349.999 273.494 350.319 273.153 350.541 272.749C350.763 272.346 350.879 271.893 350.879 271.432C350.879 270.972 350.763 270.519 350.541 270.115C350.319 269.711 349.999 269.37 349.611 269.122C348.914 268.715 348.176 268.384 347.409 268.132C346.033 267.659 344.624 267.274 343.248 266.802C341.814 266.378 340.547 265.516 339.627 264.338C339.076 263.629 338.687 262.808 338.487 261.934C338.287 261.059 338.282 260.151 338.47 259.273C338.659 258.396 339.038 257.571 339.58 256.855C340.122 256.14 340.814 255.551 341.608 255.132C343.561 254.025 345.82 253.578 348.048 253.856C349.502 253.948 350.933 254.271 352.286 254.813C352.615 254.949 352.932 255.115 353.232 255.308C353.459 255.441 353.642 255.636 353.761 255.87C353.88 256.103 353.93 256.366 353.904 256.628C353.904 257.067 353.904 257.507 353.904 257.947C353.904 258.387 353.607 258.684 353.067 258.574C352.829 258.51 352.597 258.425 352.374 258.321C350.277 257.393 347.959 257.084 345.692 257.43C344.982 257.522 344.302 257.77 343.7 258.156C343.405 258.391 343.163 258.685 342.988 259.018C342.814 259.351 342.71 259.717 342.684 260.092C342.658 260.468 342.711 260.844 342.838 261.198C342.966 261.552 343.165 261.876 343.424 262.149C343.855 262.526 344.346 262.827 344.877 263.04C346.286 263.579 347.728 264.008 349.159 264.514C350.045 264.803 350.916 265.137 351.768 265.515C352.567 265.89 353.276 266.434 353.844 267.109C354.412 267.785 354.828 268.575 355.061 269.426C355.294 270.277 355.34 271.168 355.196 272.039C355.051 272.909 354.719 273.738 354.223 274.468C353.268 275.93 351.831 277.012 350.161 277.526C348.705 278 347.179 278.227 345.648 278.196Z" fill="#5F9EF3"></path><path d="M280.195 284.796C280.401 284.64 280.653 284.557 280.911 284.557C281.169 284.557 281.42 284.64 281.626 284.796C282.936 285.544 284.257 286.281 285.611 286.941C290.825 289.514 296.323 291.471 301.991 292.77C304.049 293.232 306.119 293.661 308.188 294.013C309.785 294.288 311.403 294.387 313.01 294.574C316.3 294.927 319.612 295.027 322.917 294.871C324.689 294.816 326.462 294.574 328.234 294.431C330.452 294.219 332.657 293.885 334.839 293.43C337.587 292.92 340.297 292.225 342.952 291.351C345.153 290.625 347.355 289.767 349.556 288.986C349.887 288.863 350.238 288.803 350.591 288.81C350.755 288.815 350.915 288.864 351.054 288.952C351.193 289.04 351.305 289.163 351.379 289.31C351.454 289.456 351.487 289.62 351.476 289.783C351.466 289.947 351.411 290.105 351.318 290.24C351.153 290.489 350.944 290.705 350.701 290.878C346.656 293.717 342.202 295.924 337.492 297.423C334.656 298.353 331.752 299.063 328.806 299.545C326.243 300.02 323.642 300.27 321.035 300.293H317.446C315.306 300.242 313.171 300.07 311.051 299.776C308.473 299.431 305.924 298.901 303.422 298.192C297.961 296.663 292.764 294.311 288.011 291.219C285.269 289.475 282.69 287.487 280.305 285.28L280.195 284.796Z" fill="#5F9EF3"></path><path d="M349.842 285.852C347.519 285.973 346.408 286.127 344.492 286.325C344.217 286.325 343.931 286.325 343.865 286.127C343.845 286.009 343.856 285.889 343.897 285.777C343.937 285.666 344.006 285.566 344.096 285.489C344.698 285.068 345.335 284.7 346 284.389C348.217 283.413 350.625 282.951 353.045 283.036C354.222 283.03 355.396 283.152 356.546 283.399C356.733 283.442 356.917 283.497 357.096 283.564C358.065 283.905 358.197 284.114 358.197 285.104C358.206 288.194 357.335 291.222 355.687 293.837C355.056 294.797 354.349 295.705 353.574 296.554C353.308 296.824 352.985 297.031 352.627 297.159C352.33 297.269 352.143 297.093 352.176 296.763C352.216 296.551 352.279 296.345 352.363 296.147C353.276 294.033 354.012 291.848 354.565 289.613C354.808 288.852 354.85 288.041 354.686 287.259C354.645 287.044 354.549 286.843 354.406 286.677C354.263 286.511 354.078 286.385 353.871 286.314C353.298 286.134 352.708 286.012 352.11 285.951C351.357 285.868 350.599 285.835 349.842 285.852Z" fill="#5F9EF3"></path><path d="M416.605 240.547H444.533V263.645C444.533 265.582 443.763 267.439 442.392 268.809C441.021 270.179 439.162 270.948 437.223 270.948H423.915C421.976 270.948 420.117 270.179 418.746 268.809C417.376 267.439 416.605 265.582 416.605 263.645V240.547Z" fill="#5F9EF3"></path><path d="M461.628 229.438C461.111 227.777 459.845 227.491 458.018 226.853C458.409 225.214 458.428 223.507 458.073 221.86C457.668 220.43 456.845 219.153 455.709 218.193C454.574 217.233 453.178 216.633 451.699 216.47C446.415 215.557 443.718 220.199 443.256 221.002C443.542 221.002 446.988 221.409 448.077 221.464C449.167 221.519 449.398 221.86 449.112 221.86C448.826 221.86 443.894 221.64 443.663 221.805C441.608 223.612 439.67 225.548 437.862 227.601C438.458 224.83 437.965 221.936 436.486 219.517C435.627 218.197 434.824 217.317 433.734 217.394C432.644 217.471 431.72 222.729 431.72 225.533C432.735 226.217 433.66 227.026 434.472 227.942C434.879 228.492 435.033 228.899 434.593 229.438C433.041 226.699 431.29 226.963 430.861 226.908C430.432 226.853 430.399 227.777 430.289 228.459C430.179 229.141 428.792 238.039 428.792 238.842C428.56 236.642 428.968 229.152 429.023 228.514C429.078 227.876 429.364 227.601 428.681 227.414C427.999 227.227 426.777 226.897 425.06 228.679C423.534 226.565 421.416 224.95 418.972 224.038C416.683 223.235 414.096 223.169 409.065 227.128C410.663 225.339 412.568 223.849 414.69 222.729C415.318 222.498 414.514 221.981 414.514 221.981C413.511 221.07 412.232 220.52 410.881 220.416C409.529 220.313 408.182 220.662 407.051 221.409C405.389 222.608 399.588 227.887 401.261 233.112C402.934 238.336 408.658 235.312 409.297 234.718C408.658 237.291 408.493 240.283 408.955 240.855C409.418 241.427 412.973 239.359 413.997 237.929C415.389 236.016 416.529 233.931 417.387 231.726C417.729 230.296 418.598 228.745 419.974 228.921C421.35 229.097 423.189 229.493 423.871 230.527C422.411 232.933 421.842 235.774 422.264 238.556C419.776 238.556 417.729 238.787 415.318 241.306C412.907 243.825 411.069 246.805 411.366 250.435C411.63 253.834 414.063 257.518 418.84 256.177L420.448 255.572C422.026 254.884 423.422 253.838 424.525 252.517C425.627 251.196 426.406 249.635 426.799 247.96C424.906 247.157 422.726 244.122 422.495 243.561C420.93 244.664 419.458 245.893 418.092 247.234C419.349 245.242 420.826 243.398 422.495 241.735C423.244 243 426.898 247.124 428.869 247.234C430.839 247.344 432.028 246.134 433.118 244.089C433.459 243.462 433.998 242.549 434.527 241.438L435.231 239.788C435.863 238.181 436.17 236.465 436.134 234.74C443.399 230.934 445.381 231.638 446.845 231.693C448.309 231.748 446.261 232.155 446.261 232.1C446.382 232.32 448.044 238.116 448.166 238.809C448.287 239.502 448.738 241.9 448.221 240.756C447.703 239.612 445.171 233.706 444.72 233.409C444.37 233.223 443.986 233.108 443.592 233.07C443.197 233.032 442.799 233.072 442.419 233.189C440.933 234.003 439.822 236.994 440.042 239.788L440.361 241.438C441.308 244.221 444.555 246.585 445.458 247.069C446.225 247.492 447.065 247.768 447.934 247.883L449.608 247.729C450.167 247.57 450.69 247.305 451.149 246.948C453.504 245.178 453.669 242.879 453.846 239.953C454.022 237.027 452.349 234.388 449.883 231.748C451.486 232.209 452.896 233.178 453.901 234.509C456.102 234.905 460.274 232.496 460.737 232.1C461.195 231.851 461.542 231.439 461.707 230.945C461.873 230.45 461.845 229.912 461.628 229.438ZM417.2 227.678C415.882 228.253 414.804 229.268 414.151 230.549C413.689 231.297 412.026 233.134 411.113 233.354C412.951 231.066 414.668 228.316 415.01 226.589C415.351 224.863 417.828 225.269 417.828 225.269C417.828 225.269 420.415 224.874 424.432 229.46C420.987 227.678 418.972 226.974 417.2 227.678ZM447.56 229.977C445.648 229.597 443.676 229.63 441.777 230.074C439.879 230.518 438.097 231.362 436.552 232.551C437.477 231.011 442.761 223.609 443.564 222.806C444.619 224.664 445.931 226.363 447.461 227.854C448.672 227.678 454.814 226.072 456.135 226.875C454.737 227.194 448.65 228.778 447.56 229.955V229.977Z" fill="#487EC6"></path><path d="M477.989 273.038H459.727V389.616H477.989V273.038Z" fill="#487EC6" stroke="#487EC6" stroke-width="4.5" stroke-miterlimit="10" stroke-linecap="round"></path><path d="M400.798 273.038H380.664V389.616H400.798V273.038Z" fill="#487EC6" stroke="#487EC6" stroke-width="4.5" stroke-miterlimit="10" stroke-linecap="round"></path><path d="M455.705 273.038H379.883V389.616H455.705V273.038Z" stroke="#5F9EF3" stroke-width="4.5" stroke-miterlimit="10" stroke-linecap="round"></path><path d="M379.883 312.513H455.716" stroke="#5F9EF3" stroke-width="4.5" stroke-miterlimit="10" stroke-linecap="round"></path><path d="M379.883 350.877H455.716" stroke="#5F9EF3" stroke-width="4.5" stroke-miterlimit="10" stroke-linecap="round"></path><path d="M395.658 346.753C396.536 345.575 397.011 344.146 397.011 342.678C397.011 341.209 396.536 339.78 395.658 338.603V337.932H423.068C424.576 337.932 425.798 340.054 425.798 342.683C425.798 345.312 424.576 347.424 423.068 347.424H395.658V346.753Z" fill="#5F9EF3"></path><path d="M408.395 335.765C409.246 333.115 409.246 330.265 408.395 327.615V326.944H442.09C442.794 326.944 445.491 329.067 445.491 331.684C445.491 334.302 442.794 336.436 442.09 336.436H408.395V335.765Z" fill="#5F9EF3"></path><path d="M395.658 347.424H446.581C447.839 347.424 449.046 346.924 449.936 346.035C450.825 345.146 451.325 343.94 451.325 342.683C451.327 342.06 451.205 341.442 450.967 340.866C450.73 340.289 450.38 339.765 449.94 339.324C449.499 338.883 448.975 338.532 448.399 338.294C447.823 338.055 447.205 337.932 446.581 337.932H395.658" stroke="#487EC6" stroke-width="1.5" stroke-miterlimit="10" stroke-linecap="round"></path><path d="M423.498 342.683C423.498 341.423 422.997 340.214 422.105 339.323C421.213 338.432 420.003 337.932 418.742 337.932H446.581C447.801 337.99 448.952 338.516 449.795 339.4C450.638 340.283 451.108 341.457 451.108 342.678C451.108 343.898 450.638 345.072 449.795 345.956C448.952 346.839 447.801 347.365 446.581 347.424H418.742C420.001 347.424 421.209 346.925 422.101 346.036C422.992 345.147 423.495 343.941 423.498 342.683Z" fill="#487EC6" stroke="#487EC6" stroke-width="1.5" stroke-miterlimit="10"></path><path d="M408.24 336.436H440.692C441.316 336.436 441.933 336.313 442.51 336.074C443.086 335.835 443.61 335.485 444.05 335.043C444.491 334.602 444.84 334.078 445.078 333.502C445.316 332.925 445.437 332.308 445.436 331.684C445.436 330.427 444.936 329.221 444.046 328.332C443.157 327.443 441.95 326.944 440.692 326.944H408.24" stroke="#487EC6" stroke-width="1.5" stroke-miterlimit="10" stroke-linecap="round"></path><path d="M441.991 297.5C441.14 294.85 441.14 292 441.991 289.349V288.678H408.296C407.591 288.678 404.895 290.801 404.895 293.419C404.895 296.037 407.591 298.171 408.296 298.171H441.991V297.5Z" fill="#5F9EF3"></path><path d="M442.09 298.171H409.639C408.38 298.168 407.173 297.666 406.283 296.775C405.394 295.884 404.895 294.677 404.895 293.419C404.895 292.162 405.394 290.956 406.284 290.067C407.174 289.178 408.381 288.678 409.639 288.678H442.09" stroke="#487EC6" stroke-width="1.5" stroke-miterlimit="10" stroke-linecap="round"></path><path d="M400.941 308.685C401.82 307.508 402.294 306.079 402.294 304.61C402.294 303.142 401.82 301.713 400.941 300.535V299.864H428.34C429.848 299.864 431.07 301.998 431.07 304.616C431.07 307.234 429.848 309.356 428.34 309.356H400.941V308.685Z" fill="#5F9EF3"></path><path d="M400.941 309.356H436.893C438.142 309.357 439.341 308.865 440.229 307.987C441.117 307.11 441.623 305.919 441.638 304.671C441.638 303.413 441.138 302.206 440.249 301.315C439.359 300.424 438.153 299.922 436.893 299.919H400.941" stroke="#487EC6" stroke-width="1.5" stroke-miterlimit="10" stroke-linecap="round"></path><path d="M428.77 304.671C428.77 303.413 428.27 302.206 427.381 301.315C426.491 300.424 425.285 299.922 424.025 299.919H436.894C438.114 299.978 439.265 300.504 440.107 301.387C440.95 302.271 441.42 303.445 441.42 304.665C441.42 305.886 440.95 307.06 440.107 307.943C439.265 308.827 438.114 309.353 436.894 309.411H424.025C425.284 309.411 426.49 308.912 427.38 308.023C428.27 307.134 428.77 305.928 428.77 304.671Z" fill="#487EC6" stroke="#487EC6" stroke-width="1.5" stroke-miterlimit="10"></path><path d="M452.777 279.736H446.492C446.236 279.736 446.029 279.943 446.029 280.198V309.554C446.029 309.81 446.236 310.016 446.492 310.016H452.777C453.033 310.016 453.239 309.81 453.239 309.554V280.198C453.239 279.943 453.033 279.736 452.777 279.736Z" fill="#487EC6"></path></svg> 