<?xml version="1.0" encoding="UTF-8"?> <svg xmlns="http://www.w3.org/2000/svg" width="560" height="414" viewBox="0 0 560 414" fill="none"><g clip-path="url(#clip0_195_6542)"><path d="M549.22 135.962C591.42 214.688 508.147 319.446 326.95 310.141C227.649 305.018 206.11 309.304 122.086 319.759C6.75567 334.083 -43.3334 221.17 69.367 147.149C166.665 83.2696 465.446 -20.1294 549.22 135.962Z" fill="#DAE4F3"></path><path d="M365.581 414C451.781 414 521.661 408.711 521.661 402.186C521.661 395.662 451.781 390.373 365.581 390.373C279.381 390.373 209.502 395.662 209.502 402.186C209.502 408.711 279.381 414 365.581 414Z" fill="#DAE4F3"></path><path d="M380.247 31.3636H26.502V383.682H380.247V31.3636Z" fill="#5F9EF3"></path><path d="M380.247 0H26.502V69.4182H380.247V0Z" fill="#275798"></path><path d="M386.008 350.645H22.207V383.682H386.008V350.645Z" fill="#3D76C2"></path><path d="M349.239 196.441H234.223V383.055H349.239V196.441Z" fill="#3D76C2"></path><path d="M209.818 196.441H58.8711V314.159H209.818V196.441Z" fill="#3D76C2"></path><path opacity="0.2" d="M199.76 207.836H68.9258V302.555H199.76V207.836Z" fill="#93C1FE"></path><path opacity="0.5" d="M199.76 225.774L68.9258 270.063V302.554H199.76V225.774Z" fill="#275798"></path><path opacity="0.2" d="M339.184 207.836H245.746V372.914H339.184V207.836Z" fill="#93C1FE"></path><path opacity="0.5" d="M339.184 232.995L245.746 273.914V372.914H339.184V232.995Z" fill="#275798"></path><path d="M221.236 176.995H186.249C173.365 176.995 162.994 166.332 162.994 153.264L167.184 76.5273H240.301L244.491 153.264C244.491 166.436 234.12 176.995 221.236 176.995Z" fill="#3D76C2"></path><path d="M139.738 176.995H104.751C91.8665 176.995 81.4961 166.332 81.4961 153.264L95.5328 76.5273H167.183L162.993 153.264C162.993 166.436 152.622 176.995 139.738 176.995Z" fill="#93C1FE"></path><path d="M58.2417 176.995H23.2548C10.3704 176.995 0 166.436 0 153.264L26.7116 76.5273H95.5331L81.4965 153.264C81.4965 166.436 71.1261 176.995 58.2417 176.995Z" fill="#3D76C2"></path><path d="M267.744 176.995H302.731C315.615 176.995 325.985 166.332 325.985 153.264L311.949 76.5273H240.299L244.489 153.264C244.489 166.436 254.859 176.995 267.744 176.995Z" fill="#93C1FE"></path><path d="M349.241 176.995H384.228C397.112 176.995 407.482 166.332 407.482 153.264L380.771 76.5273H311.949L325.986 153.264C325.986 166.436 336.356 176.995 349.241 176.995Z" fill="#3D76C2"></path><path d="M263.031 272.445H258.736V305.482H263.031V272.445Z" fill="#CEEAF4"></path><path fill-rule="evenodd" clip-rule="evenodd" d="M166.345 16.5182H104.437C100.561 16.5182 97.3137 19.7591 97.4185 23.6273V47.2546C97.4185 51.1227 100.561 54.3636 104.542 54.3636H133.872L147.28 61.7864L144.242 54.3636H166.45C170.325 54.3636 173.573 51.2273 173.573 47.2546V23.6273C173.468 19.6546 170.325 16.5182 166.345 16.5182ZM103.18 21.9546C102.342 22.0591 101.609 22.3727 101.19 22.8955C100.771 23.4182 100.561 24.15 100.666 24.9864C102.551 36.5909 104.227 44.4318 105.799 48.5091C106.427 49.9727 107.16 50.7046 107.998 50.6C109.255 50.4955 110.827 48.7182 112.712 45.1636C113.655 43.1773 115.121 40.25 117.216 36.2773C118.892 42.1318 121.197 46.5227 124.13 49.45C124.968 50.2864 125.806 50.7046 126.539 50.6C127.273 50.4955 127.796 50.1818 128.215 49.45C128.53 48.8227 128.634 48.1955 128.634 47.3591C128.425 44.5364 128.739 40.5636 129.472 35.5455C130.31 30.3182 131.253 26.5546 132.51 24.3591C132.72 23.9409 132.824 23.4182 132.824 22.8955C132.72 22.1636 132.405 21.6409 131.882 21.1182C131.253 20.7 130.625 20.3864 129.891 20.4909C128.949 20.5955 128.32 21.0136 127.796 21.85C125.911 25.4046 124.549 31.05 123.711 38.8909C122.559 35.9636 121.511 32.4091 120.778 28.3318C120.464 26.45 119.626 25.6136 118.264 25.7182C117.321 25.8227 116.588 26.45 115.959 27.6L109.151 40.5636C107.998 36.0682 106.951 30.5273 106.008 24.0455C105.694 22.5818 104.751 21.85 103.18 21.9546ZM163.097 24.2546C165.297 24.6727 166.973 25.9273 168.021 27.8091C168.964 29.4818 169.487 31.4682 169.487 33.8727C169.487 37.1136 168.649 39.9364 167.078 42.6546C165.193 45.7909 162.783 47.3591 159.745 47.3591C159.222 47.3591 158.698 47.2546 158.069 47.15C155.87 46.7318 154.194 45.4773 153.146 43.5955C152.203 41.9227 151.68 39.8318 151.68 37.4273C151.68 34.1864 152.518 31.3636 154.089 28.6455C155.974 25.5091 158.384 23.9409 161.421 23.9409C161.945 24.0455 162.469 24.0455 163.097 24.2546ZM161.736 40.9818C162.888 39.9364 163.621 38.4727 164.145 36.3818C164.25 35.65 164.354 34.9182 164.354 34.0818C164.354 33.1409 164.145 32.2 163.831 31.2591C163.412 30.0046 162.783 29.3773 161.945 29.2727C160.793 29.0636 159.745 29.6909 158.698 31.1546C157.86 32.3046 157.336 33.5591 157.022 34.8136C156.917 35.5455 156.812 36.2773 156.812 37.1136C156.812 38.0546 157.022 38.9955 157.336 39.9364C157.755 41.1909 158.384 41.8182 159.222 41.9227C160.06 42.1318 160.898 41.8182 161.736 40.9818ZM148.537 27.8091C147.385 25.8227 145.709 24.6727 143.614 24.2546C142.985 24.15 142.462 24.0455 141.938 24.0455C139.005 24.0455 136.491 25.6136 134.605 28.75C133.034 31.3636 132.196 34.2909 132.196 37.5318C132.196 39.9364 132.72 41.9227 133.662 43.7C134.815 45.6864 136.386 46.8364 138.586 47.2546C139.214 47.3591 139.738 47.4636 140.262 47.4636C143.3 47.4636 145.709 45.8955 147.594 42.7591C149.166 40.0409 150.004 37.2182 150.004 33.9773C150.004 31.4682 149.585 29.4818 148.537 27.8091ZM144.661 36.3818C144.242 38.4727 143.404 39.9364 142.252 40.9818C141.309 41.8182 140.471 42.1318 139.738 41.9227C139.005 41.8182 138.376 41.0864 137.852 39.9364C137.433 38.9955 137.329 38.0546 137.329 37.1136C137.329 36.3818 137.433 35.5455 137.538 34.8136C137.852 33.5591 138.376 32.3046 139.214 31.1546C140.262 29.5864 141.309 29.0636 142.462 29.2727C143.195 29.3773 143.823 30.1091 144.347 31.2591C144.766 32.2 144.871 33.1409 144.871 34.0818C144.871 34.9182 144.766 35.65 144.661 36.3818Z" fill="white"></path><path fill-rule="evenodd" clip-rule="evenodd" d="M181.324 27.4954C179.229 29.5863 178.182 32.2 178.182 35.3363C178.182 38.6818 179.229 41.5045 181.219 43.5954C183.314 45.6863 185.933 46.7318 189.285 46.7318C190.228 46.7318 191.38 46.6273 192.533 46.2091V41.1909C191.485 41.5045 190.542 41.6091 189.704 41.6091C188.028 41.6091 186.771 41.0863 185.724 39.9363C184.781 38.7863 184.257 37.3227 184.257 35.4409C184.257 33.6636 184.781 32.2 185.724 31.05C186.666 29.9 187.924 29.3773 189.39 29.3773C190.333 29.3773 191.38 29.4818 192.533 29.7954V24.7773C191.485 24.4636 190.333 24.3591 189.181 24.3591C186.038 24.4636 183.419 25.5091 181.324 27.4954ZM202.903 24.4636C200.075 24.4636 197.77 25.4045 196.199 27.2863C194.628 29.1682 193.79 31.8863 193.79 35.2318C193.79 38.8909 194.628 41.7136 196.199 43.7C197.77 45.6863 200.075 46.6273 203.112 46.6273C206.045 46.6273 208.35 45.6863 209.921 43.7C211.493 41.7136 212.331 38.9954 212.331 35.4409C212.331 31.8863 211.493 29.1682 209.921 27.2863C208.245 25.4045 205.941 24.4636 202.903 24.4636ZM205.312 40.5636C204.788 41.4 203.95 41.8182 202.903 41.8182C201.96 41.8182 201.122 41.4 200.598 40.5636C200.075 39.7273 199.865 37.95 199.865 35.3363C199.865 31.2591 200.913 29.2727 203.008 29.2727C205.207 29.2727 206.255 31.3636 206.255 35.4409C206.255 37.95 205.941 39.7273 205.312 40.5636ZM227.729 25.0909L226.577 29.7954C226.262 31.05 226.053 32.2 225.739 33.5591L225.11 36.8C224.482 33.5591 223.748 29.5863 222.701 25.0909H215.473L212.75 46.2091H218.197L219.663 31.6773L223.329 46.2091H227.205L230.767 31.6773L232.338 46.2091H237.995L235.062 25.0909H227.729ZM253.603 25.0909L252.45 29.7954C252.136 31.05 251.926 32.2 251.612 33.5591L250.984 36.8C250.355 33.5591 249.622 29.5863 248.574 25.0909H241.347L238.623 46.2091H244.07L245.537 31.6773L249.203 46.2091H253.079L256.64 31.6773L258.212 46.2091H263.868L260.935 25.0909H253.603ZM271.201 37.8454H276.229V33.4545H271.201V29.5863H277.067V25.0909H265.544V46.2091H277.172V41.7136H271.305V37.8454H271.201ZM293.198 34.5C293.827 33.5591 294.141 32.5136 294.141 31.5727C294.141 29.5863 293.408 28.0182 291.837 26.8682C290.265 25.7182 288.17 25.0909 285.447 25.0909H278.743V46.2091H284.504V36.5909H284.609L289.218 46.2091H295.293L290.684 36.6954C291.732 36.1727 292.57 35.4409 293.198 34.5ZM284.399 34.1863V29.1682C285.761 29.1682 286.704 29.3773 287.332 29.9C287.961 30.3182 288.17 31.05 288.17 31.9909C288.17 33.35 286.913 34.0818 284.399 34.1863ZM297.389 27.4954C295.293 29.5863 294.246 32.2 294.246 35.3363C294.246 38.6818 295.293 41.5045 297.284 43.5954C299.379 45.6863 301.998 46.7318 305.35 46.7318C306.292 46.7318 307.445 46.6273 308.597 46.2091V41.1909C307.549 41.5045 306.607 41.6091 305.769 41.6091C304.093 41.6091 302.836 41.0863 301.788 39.9363C300.845 38.7863 300.322 37.3227 300.322 35.4409C300.322 33.6636 300.845 32.2 301.788 31.05C302.836 29.9 303.988 29.3773 305.454 29.3773C306.397 29.3773 307.445 29.4818 308.597 29.7954V24.7773C307.549 24.4636 306.397 24.3591 305.245 24.3591C302.102 24.4636 299.484 25.5091 297.389 27.4954ZM315.929 41.6091V37.7409H320.958V33.4545H315.929V29.5863H321.796V25.0909H310.273V46.2091H321.9V41.7136L315.929 41.6091Z" fill="white"></path><path d="M250.461 325.032C250.671 327.541 243.652 392.986 243.652 392.986H250.042L266.907 324.927L250.461 325.032Z" fill="#F2AC88"></path><path d="M286.494 325.032C286.808 327.541 293.931 392.986 293.931 392.986H300.321L302.835 325.032H286.494Z" fill="#F2AC88"></path><path d="M240.195 403.545L243.757 393.091H250.147L263.45 403.545H240.195Z" fill="#E55948"></path><path d="M291.207 403.545L293.931 393.091H300.216L314.462 403.545H291.207Z" fill="#E55948"></path><path d="M264.182 253.523C248.783 288.964 253.183 275.582 246.793 325.032H306.292C304.825 295.759 312.367 274.118 299.378 253.523H264.182Z" fill="#275798"></path><path d="M289.113 201.25V192.468C289.113 192.468 298.436 193.095 292.57 168.318C290.999 163.718 279.895 168.318 279.895 168.318L272.562 182.118L274.867 192.05L279.057 204.7L289.113 201.25Z" fill="#F2AC88"></path><path d="M336.566 262.618L353.536 265.545C353.536 265.545 348.927 255.823 338.766 255.718C328.605 255.509 336.566 262.618 336.566 262.618Z" fill="#F2AC88"></path><path d="M299.485 253.523L300.009 226.968C300.009 226.968 307.865 278.091 338.976 265.441C338.976 263.977 336.148 255.614 336.148 255.614C336.148 255.614 310.903 220.068 294.352 200.832C284.401 194.036 277.487 196.755 271.831 200.623C269.003 202.609 264.289 198.741 261.356 209.718C260.308 213.795 260.832 221.532 264.184 231.359C268.06 242.964 264.289 253.418 264.289 253.418H299.485V253.523Z" fill="#6DC7B7"></path><path d="M285.969 159.014C277.904 155.564 268.266 159.118 264.495 166.123C260.62 173.127 254.649 187.241 260.829 199.577C266.381 210.764 269.419 199.055 274.971 199.577C278.218 199.891 279.58 196.441 284.503 196.755C290.893 197.173 283.665 192.155 284.084 182.745C284.398 176.891 288.693 170.827 292.569 168.214C296.34 165.6 290.683 161 285.969 159.014Z" fill="#E55948"></path><g clip-path="url(#clip1_195_6542)"><path d="M434.917 123.354L361.06 133.544C351.638 134.844 345.044 143.466 346.332 152.802L356.429 225.981C357.717 235.316 366.399 241.831 375.821 240.531L449.678 230.34C459.1 229.04 465.694 220.418 464.406 211.083L454.309 137.904C453.021 128.568 444.339 122.054 434.917 123.354Z" fill="#275798"></path><path d="M439.166 163.58C437.52 154.688 432.676 150.994 423.513 151.836C419.949 152.166 418.881 152.28 409.909 153.518C400.937 154.756 399.885 154.935 396.365 155.581C387.309 157.247 383.661 162.119 384.477 171.126C384.801 174.657 384.913 175.716 386.139 184.599C387.365 193.482 387.543 194.531 388.187 198.019C389.831 206.891 394.658 210.607 403.84 209.763C407.404 209.432 408.472 209.318 417.437 208.081C426.403 206.844 427.462 206.665 430.989 206.017C440.044 204.352 443.693 199.48 442.877 190.473C442.552 186.941 442.441 185.89 441.214 177C439.988 168.11 439.81 167.068 439.166 163.58Z" fill="#487EC6"></path><path opacity="0.2" d="M433.385 164.378C431.738 155.485 426.894 151.792 417.732 152.633C414.168 152.964 413.1 153.078 404.128 154.316C395.156 155.554 394.104 155.732 390.583 156.379C381.528 158.045 377.879 162.917 378.695 171.923C379.02 175.455 379.132 176.513 380.358 185.396C381.583 194.28 381.762 195.329 382.406 198.816C384.05 207.689 388.877 211.405 398.059 210.561C401.623 210.23 402.691 210.116 411.656 208.879C420.622 207.642 421.68 207.463 425.208 206.815C434.263 205.149 437.912 200.278 437.096 191.271C436.771 187.739 436.66 186.687 435.433 177.798C434.206 168.908 434.029 167.865 433.385 164.378Z" fill="#275798"></path><path d="M430.86 164.726C429.213 155.834 424.369 152.141 415.207 152.982C411.643 153.313 410.575 153.426 401.603 154.664C392.631 155.902 391.578 156.081 388.058 156.728C379.003 158.393 375.354 163.265 376.17 172.272C376.495 175.804 376.607 176.862 377.832 185.745C379.058 194.628 379.237 195.677 379.88 199.165C381.525 208.037 386.351 211.753 395.533 210.909C399.098 210.578 400.165 210.465 409.131 209.228C418.096 207.991 419.155 207.811 422.682 207.163C431.738 205.498 435.386 200.626 434.57 191.619C434.245 188.087 434.134 187.036 432.908 178.146C431.681 169.256 431.503 168.214 430.86 164.726Z" fill="#5F9EF3"></path><path opacity="0.2" d="M425.078 165.524C423.432 156.632 418.588 152.938 409.425 153.78C405.861 154.11 404.793 154.224 395.821 155.462C386.849 156.7 385.797 156.879 382.277 157.525C373.221 159.191 369.573 164.063 370.389 173.069C370.713 176.601 370.826 177.659 372.051 186.543C373.277 195.426 373.455 196.475 374.099 199.963C375.743 208.835 380.57 212.551 389.752 211.707C393.316 211.376 394.384 211.262 403.35 210.025C412.315 208.788 413.374 208.609 416.901 207.961C425.956 206.296 429.605 201.424 428.789 192.417C428.464 188.885 428.353 187.834 427.126 178.944C425.9 170.054 425.722 169.012 425.078 165.524Z" fill="#275798"></path><path d="M394.708 165.997C385.184 167.311 378.517 176.028 379.819 185.464C381.121 194.9 389.9 201.487 399.423 200.173C408.947 198.859 415.614 190.141 414.312 180.705C413.01 171.269 404.232 164.683 394.708 165.997ZM398.596 194.18C392.416 195.033 386.713 190.76 385.867 184.63C385.021 178.499 389.347 172.843 395.535 171.989C401.722 171.135 407.418 175.409 408.264 181.54C409.11 187.67 404.784 193.327 398.596 194.18ZM411.995 158.86C409.769 159.168 408.209 161.208 408.512 163.407C408.816 165.613 410.87 167.149 413.097 166.841C415.323 166.534 416.877 164.495 416.574 162.295C416.27 160.096 414.222 158.553 411.995 158.86Z" fill="#275798"></path><path d="M393.302 155.81C402.267 154.573 403.335 154.459 406.906 154.127C416.067 153.279 420.905 156.974 422.559 165.871C423.203 169.359 423.381 170.408 424.607 179.291C425.832 188.174 425.945 189.233 426.269 192.764C427.084 201.765 423.436 206.637 414.381 208.309C410.861 208.955 409.809 209.134 400.83 210.373C391.851 211.612 390.797 211.724 387.233 212.054C378.05 212.898 373.23 209.182 371.58 200.31C370.936 196.822 370.758 195.78 369.532 186.89C368.305 178 368.194 176.949 367.869 173.417C367.053 164.41 370.703 159.545 379.757 157.873C383.278 157.226 384.336 157.047 393.302 155.81ZM394.708 166.003C385.185 167.317 378.518 176.034 379.82 185.471C381.122 194.907 389.9 201.493 399.424 200.179C408.947 198.865 415.614 190.148 414.312 180.712C413.01 171.275 404.232 164.689 394.708 166.003ZM398.597 194.187C392.416 195.04 386.713 190.767 385.867 184.636C385.022 178.506 389.348 172.849 395.535 171.995C401.722 171.142 407.419 175.415 408.264 181.546C409.11 187.677 404.784 193.333 398.597 194.187ZM411.996 158.867C409.769 159.174 408.209 161.215 408.512 163.414C408.816 165.613 410.871 167.155 413.097 166.848C415.323 166.541 416.877 164.501 416.574 162.302C416.27 160.102 414.222 158.56 411.996 158.867Z" fill="white"></path></g><g style="mix-blend-mode:multiply" opacity="0.2"><path d="M501.868 144.617L432.113 168.935C423.214 172.037 418.515 181.766 421.617 190.665L445.935 260.42C449.037 269.319 458.766 274.018 467.665 270.915L537.42 246.598C546.319 243.496 551.018 233.767 547.915 224.868L523.598 155.113C520.496 146.214 510.767 141.515 501.868 144.617Z" fill="#275798"></path></g><path d="M511.868 142.617L442.113 166.935C433.214 170.037 428.515 179.766 431.617 188.665L455.935 258.42C459.037 267.319 468.766 272.018 477.665 268.915L547.42 244.598C556.319 241.496 561.018 231.767 557.915 222.868L533.598 153.113C530.496 144.214 520.767 139.515 511.868 142.617Z" fill="#5F9EF3"></path><path d="M476.787 190.636C477.214 190.487 477.63 190.328 478.061 190.192C478.505 190.051 478.897 190.147 479.201 190.513C479.385 190.737 479.579 190.951 479.736 191.199C482.63 195.583 485.523 199.966 488.417 204.35C488.462 204.419 488.495 204.492 488.55 204.55C488.672 204.677 488.8 204.801 488.919 204.921C488.915 204.747 488.919 204.576 488.902 204.406C488.383 199.364 487.858 194.323 487.339 189.281C487.295 188.832 487.247 188.391 487.203 187.941C487.148 187.362 487.42 186.95 487.935 186.75C488.746 186.432 489.566 186.139 490.404 185.896C491.005 185.722 491.477 185.987 491.862 186.585C493.503 189.173 495.136 191.758 496.778 194.346C498.114 196.443 499.455 198.531 500.795 200.619C500.855 200.711 500.949 200.777 501.025 200.856C501.047 200.757 501.09 200.657 501.084 200.561C501.004 199.483 500.918 198.408 500.83 197.327C500.471 193.066 500.112 188.805 499.759 184.543C499.734 184.228 499.73 183.912 499.723 183.591C499.715 183.002 499.968 182.555 500.522 182.348C501.31 182.045 502.116 181.771 502.92 181.512C503.319 181.387 503.578 181.543 503.697 181.966C503.779 182.24 503.798 182.536 503.806 182.822C503.924 186.413 504.034 190 504.151 193.585C504.255 196.752 504.366 199.917 504.47 203.083C504.509 204.224 504.304 204.507 503.221 204.892C502.649 205.091 502.076 205.305 501.501 205.491C500.603 205.783 500.246 205.668 499.699 204.845C498.905 203.658 498.148 202.457 497.377 201.255C495.607 198.5 493.837 195.745 492.067 192.99C491.725 192.454 491.39 191.916 491.044 191.389C490.984 191.298 490.872 191.238 490.789 191.161C490.776 191.286 490.734 191.406 490.748 191.528C490.913 193.132 491.084 194.733 491.247 196.331C491.575 199.617 491.896 202.898 492.218 206.186C492.26 206.608 492.341 207.023 492.374 207.441C492.442 208.262 492.187 208.682 491.424 208.976C490.784 209.22 490.129 209.441 489.478 209.654C488.568 209.951 488.13 209.807 487.565 209.033C485.898 206.756 484.229 204.472 482.562 202.195C480.223 198.998 477.886 195.808 475.546 192.61C474.777 191.555 474.864 191.279 476.107 190.845C476.333 190.766 476.552 190.69 476.778 190.611L476.783 190.624L476.787 190.636Z" fill="white"></path><path d="M477.9 207.101C478.32 208.264 479.027 209.242 479.94 210.064C480.062 210.17 480.183 210.276 480.281 210.396C480.561 210.735 480.646 211.121 480.38 211.488C479.949 212.089 479.518 212.69 479.036 213.245C478.669 213.668 478.25 213.737 477.749 213.412C477.066 212.967 476.431 212.456 475.805 211.935C475.353 211.565 475.365 211.54 475.132 212.064C474.282 213.987 472.964 215.495 471.11 216.501C469.725 217.251 468.249 217.744 466.647 217.691C464.167 217.605 462.405 216.388 461.328 214.187C460.766 213.039 460.392 211.825 460.494 210.522C460.687 208.026 462.016 206.246 464.063 204.948C465.885 203.792 467.919 203.266 470.025 202.947C470.548 202.871 471.066 202.782 471.591 202.732C471.91 202.699 471.935 202.549 471.837 202.309C471.4 201.236 471.027 200.127 470.5 199.1C469.824 197.787 468.691 197.161 467.175 197.274C465.247 197.418 463.541 198.161 461.967 199.217C461.156 199.76 460.412 200.392 459.64 200.985C459.497 201.098 459.368 201.235 459.214 201.338C458.787 201.627 458.458 201.552 458.269 201.09C458.062 200.578 457.885 200.048 457.722 199.521C457.568 199.039 457.733 198.644 458.069 198.295C459.057 197.253 460.181 196.376 461.426 195.667C462.83 194.868 464.327 194.276 465.896 193.89C466.902 193.645 467.92 193.495 468.953 193.571C471.419 193.76 473.111 195.099 474.221 197.233C474.577 197.911 474.866 198.62 475.137 199.335C475.562 200.475 477.378 205.664 477.9 207.101ZM467.356 206.701C466.706 206.976 466.105 207.411 465.617 207.912C464.479 209.069 464.451 210.825 465.307 212.392C465.936 213.552 467.252 214.298 468.7 213.969C470.978 213.456 472.698 212.23 473.567 209.998C473.734 209.567 473.849 209.048 473.78 208.608C473.616 207.595 473.321 206.606 473.087 205.611C473.013 205.299 472.817 205.283 472.547 205.335C471.23 205.596 469.428 205.838 467.362 206.698L467.356 206.701Z" fill="white"></path><path d="M519.606 199.876C517.933 200.389 515.941 200.774 513.882 200.682C513.518 200.668 513.125 200.65 512.791 200.52C512.459 200.397 512.071 200.194 511.914 199.904C511.619 199.38 511.434 198.79 511.285 198.201C511.159 197.717 511.416 197.445 511.909 197.406C512.197 197.383 512.492 197.4 512.78 197.42C515.252 197.585 517.62 197.168 519.852 196.08C520.598 195.715 521.25 195.241 521.762 194.57C522.937 193.034 522.198 190.792 520.314 190.358C519.557 190.185 518.744 190.173 517.955 190.174C516.555 190.176 515.158 190.269 513.761 190.277C512.312 190.282 510.913 190.024 509.69 189.183C506.774 187.18 505.95 183.342 508.575 180.188C510.004 178.472 511.902 177.536 514.014 176.989C515.371 176.643 516.76 176.426 518.17 176.512C518.509 176.535 518.85 176.585 519.181 176.666C519.704 176.794 520.062 177.113 520.208 177.653C520.314 178.06 520.5 178.452 520.607 178.859C520.738 179.376 520.569 179.618 520.051 179.686C519.816 179.719 519.576 179.697 519.338 179.681C517.099 179.539 514.97 179.915 512.98 180.99C512.37 181.322 511.833 181.72 511.404 182.285C510.571 183.371 511.063 185.487 512.417 186.001C512.927 186.189 513.488 186.346 514.026 186.355C515.475 186.392 516.925 186.33 518.376 186.331C519.271 186.336 520.175 186.323 521.059 186.416C525.059 186.824 526.89 190.621 526.124 193.774C525.714 195.466 524.756 196.799 523.402 197.842C522.331 198.666 521.148 199.311 519.587 199.862L519.606 199.876Z" fill="white"></path><path d="M462.283 226.59C462.604 226.119 463.021 226.044 463.578 226.146C465.007 226.408 466.438 226.655 467.878 226.829C473.443 227.487 479.024 227.583 484.601 226.941C486.612 226.711 488.626 226.453 490.627 226.114C492.156 225.856 493.656 225.431 495.176 225.106C498.284 224.431 501.276 223.38 504.237 222.243C505.833 221.63 507.365 220.856 508.932 220.162C510.884 219.299 512.739 218.237 514.587 217.177C516.921 215.836 519.165 214.356 521.297 212.719C523.074 211.353 524.776 209.894 526.518 208.491C526.776 208.282 527.082 208.091 527.403 208C528.081 207.806 528.669 208.382 528.515 209.069C528.455 209.344 528.316 209.61 528.151 209.844C525.396 213.775 522.004 217.069 518.212 219.983C515.929 221.736 513.514 223.289 510.996 224.666C508.8 225.861 506.556 226.996 504.17 227.806C503.988 227.87 501.12 228.87 500.913 228.942C498.958 229.595 496.965 230.078 494.949 230.493C492.492 230.997 490.013 231.319 487.516 231.465C482.033 231.792 476.609 231.339 471.27 230.018C468.25 229.269 465.289 228.33 462.449 227.046L462.291 226.595L462.283 226.59Z" fill="#275798"></path><path d="M525.867 205.494C523.789 206.338 522.831 206.841 521.16 207.621C520.918 207.733 520.667 207.842 520.525 207.638C520.416 207.486 520.42 207.133 520.529 206.982C520.95 206.413 521.392 205.843 521.898 205.357C523.602 203.721 525.633 202.64 527.866 201.897C528.946 201.542 530.035 201.232 531.168 201.112C531.351 201.09 531.538 201.081 531.721 201.081C532.7 201.084 532.917 201.22 533.246 202.126C534.284 204.981 534.35 207.915 533.734 210.854C533.509 211.925 533.075 212.964 532.675 213.997C532.549 214.323 532.27 214.61 531.999 214.845C531.767 215.046 531.538 214.936 531.475 214.634C531.432 214.43 531.442 214.216 531.448 214.01C531.541 211.795 531.631 209.588 531.355 207.382C531.26 206.627 531.191 205.863 530.724 205.209C530.458 204.83 530.12 204.589 529.677 204.609C529.104 204.64 528.52 204.703 527.963 204.841C527.372 204.984 526.463 205.265 525.87 205.5L525.867 205.494Z" fill="#275798"></path><g style="mix-blend-mode:multiply" opacity="0.2"><path d="M483.391 216.915L410.388 205.611C401.075 204.169 392.356 210.55 390.914 219.863L379.61 292.865C378.168 302.178 384.549 310.897 393.862 312.339L466.865 323.643C476.178 325.085 484.896 318.704 486.339 309.391L497.642 236.389C499.084 227.076 492.704 218.357 483.391 216.915Z" fill="#275798"></path></g><path d="M474.391 216.915L401.388 205.611C392.075 204.169 383.356 210.55 381.914 219.863L370.61 292.865C369.168 302.178 375.549 310.897 384.862 312.339L457.865 323.643C467.178 325.085 475.896 318.704 477.339 309.391L488.642 236.389C490.084 227.076 483.704 218.357 474.391 216.915Z" fill="#487EC6"></path><path d="M460.456 240.964L410.813 233.277C407.904 232.827 405.18 234.82 404.729 237.73L397.958 281.46C397.507 284.37 399.501 287.094 402.41 287.545L452.053 295.231C454.963 295.682 457.687 293.688 458.137 290.779L464.909 247.048C465.359 244.139 463.366 241.415 460.456 240.964Z" fill="#487EC6"></path><path d="M460.456 240.964L410.813 233.277C407.904 232.827 405.18 234.82 404.729 237.73L397.958 281.46C397.507 284.37 399.501 287.094 402.41 287.545L452.053 295.231C454.963 295.682 457.687 293.688 458.137 290.779L464.909 247.048C465.359 244.139 463.366 241.415 460.456 240.964Z" fill="white"></path><path d="M463.671 255.043L464.909 247.048C465.359 244.138 463.366 241.415 460.456 240.964L410.813 233.277C407.903 232.827 405.18 234.82 404.729 237.73L403.491 245.725L463.671 255.043Z" fill="#275798"></path><path d="M419.073 254.299L410.948 253.041C410.207 252.926 409.515 253.433 409.4 254.173L408.142 262.299C408.027 263.039 408.534 263.732 409.274 263.847L417.4 265.105C418.14 265.22 418.833 264.713 418.948 263.973L420.206 255.847C420.321 255.106 419.814 254.414 419.073 254.299Z" fill="#5F9EF3"></path><path d="M436.712 257.03L428.586 255.772C427.846 255.657 427.153 256.164 427.039 256.904L425.78 265.03C425.666 265.771 426.173 266.463 426.913 266.578L435.039 267.836C435.779 267.951 436.472 267.444 436.587 266.704L437.845 258.578C437.959 257.838 437.452 257.145 436.712 257.03Z" fill="#275798"></path><path d="M454.351 259.761L446.225 258.503C445.485 258.388 444.792 258.895 444.677 259.636L443.419 267.762C443.304 268.502 443.811 269.195 444.552 269.309L452.678 270.567C453.418 270.682 454.111 270.175 454.225 269.435L455.483 261.309C455.598 260.569 455.091 259.876 454.351 259.761Z" fill="#5F9EF3"></path><path d="M416.468 271.129L408.342 269.871C407.602 269.756 406.909 270.263 406.794 271.003L405.536 279.129C405.422 279.869 405.929 280.562 406.669 280.677L414.795 281.935C415.535 282.05 416.228 281.543 416.342 280.803L417.601 272.677C417.715 271.937 417.208 271.244 416.468 271.129Z" fill="#5F9EF3"></path><path d="M434.107 273.86L425.981 272.602C425.241 272.487 424.548 272.994 424.433 273.734L423.175 281.86C423.06 282.601 423.567 283.293 424.307 283.408L432.433 284.666C433.174 284.781 433.866 284.274 433.981 283.534L435.239 275.408C435.354 274.668 434.847 273.975 434.107 273.86Z" fill="#5F9EF3"></path><path d="M451.743 276.591L443.617 275.333C442.877 275.218 442.184 275.725 442.07 276.466L440.812 284.592C440.697 285.332 441.204 286.025 441.944 286.139L450.07 287.397C450.81 287.512 451.503 287.005 451.618 286.265L452.876 278.139C452.991 277.399 452.484 276.706 451.743 276.591Z" fill="#5F9EF3"></path><path d="M424.001 231.337C424.175 230.213 423.406 229.16 422.283 228.986C421.16 228.812 420.109 229.583 419.935 230.708L418.73 238.485C418.556 239.61 419.325 240.663 420.448 240.837C421.571 241.011 422.622 240.24 422.797 239.115L424.001 231.337Z" fill="white"></path><path d="M453.694 235.935C453.868 234.81 453.099 233.758 451.976 233.584C450.854 233.41 449.802 234.181 449.628 235.305L448.424 243.083C448.25 244.208 449.019 245.26 450.142 245.434C451.264 245.608 452.316 244.837 452.49 243.713L453.694 235.935Z" fill="white"></path><path opacity="0.2" d="M431.993 265.959L408.528 262.325C406.695 262.042 405.433 264.113 406.533 265.609L410.902 271.579L398.044 280.989L397.97 281.462C397.52 284.373 399.513 287.096 402.423 287.547L417.683 289.91L422.007 286.745L425.172 291.069L430.099 291.832C430.099 291.832 430.102 291.812 430.104 291.799L433.737 268.334C433.913 267.198 433.136 266.136 431.999 265.96L431.993 265.959Z" fill="#275798"></path><path d="M429.212 262.158L405.747 258.525C403.915 258.241 402.652 260.312 403.752 261.808L408.122 267.778L392.904 278.915C391.273 280.109 390.919 282.395 392.112 284.026L398.891 293.289C400.085 294.92 402.371 295.274 404.002 294.08L419.22 282.943L423.589 288.914C424.683 290.408 427.038 289.838 427.322 288.005L430.955 264.54C431.131 263.404 430.354 262.342 429.218 262.166L429.212 262.158Z" fill="#5F9EF3"></path><path d="M343.479 264.395L357.096 271.609L380.875 379.605H490.025" stroke="#E55948" stroke-width="5.8703" stroke-miterlimit="10" stroke-linecap="round"></path><path d="M359.402 282.168H510.454L491.494 344.059L378.677 352.632" stroke="#E55948" stroke-width="5.8703" stroke-miterlimit="10" stroke-linecap="round" stroke-linejoin="round"></path><path d="M392.396 403.441C397.603 403.441 401.824 399.228 401.824 394.032C401.824 388.835 397.603 384.623 392.396 384.623C387.19 384.623 382.969 388.835 382.969 394.032C382.969 399.228 387.19 403.441 392.396 403.441Z" fill="#E55948" stroke="#275798" stroke-width="5.1757" stroke-miterlimit="10" stroke-linecap="round" stroke-linejoin="round"></path><path d="M479.236 403.441C484.443 403.441 488.664 399.228 488.664 394.032C488.664 388.835 484.443 384.623 479.236 384.623C474.029 384.623 469.809 388.835 469.809 394.032C469.809 399.228 474.029 403.441 479.236 403.441Z" fill="#E55948" stroke="#275798" stroke-width="5.1757" stroke-miterlimit="10" stroke-linecap="round" stroke-linejoin="round"></path><path d="M378.99 282.168V352.632" stroke="#E55948" stroke-width="2.9351" stroke-miterlimit="10" stroke-linecap="round" stroke-linejoin="round"></path><path d="M364.43 299.732H504.168" stroke="#E55948" stroke-width="2.9351" stroke-miterlimit="10" stroke-linecap="round" stroke-linejoin="round"></path><path d="M367.049 316.564H500.607" stroke="#E55948" stroke-width="2.9351" stroke-miterlimit="10" stroke-linecap="round" stroke-linejoin="round"></path><path d="M371.133 333.395H495.892" stroke="#E55948" stroke-width="2.9351" stroke-miterlimit="10" stroke-linecap="round" stroke-linejoin="round"></path><path d="M395.016 282.168V351.377" stroke="#E55948" stroke-width="2.9351" stroke-miterlimit="10" stroke-linecap="round" stroke-linejoin="round"></path><path d="M411.045 282.168V350.227" stroke="#E55948" stroke-width="2.9351" stroke-miterlimit="10" stroke-linecap="round" stroke-linejoin="round"></path><path d="M427.07 282.168V348.345" stroke="#E55948" stroke-width="2.9351" stroke-miterlimit="10" stroke-linecap="round" stroke-linejoin="round"></path><path d="M443.098 282.168V347.823" stroke="#E55948" stroke-width="2.9351" stroke-miterlimit="10" stroke-linecap="round" stroke-linejoin="round"></path><path d="M459.125 282.168V346.568" stroke="#E55948" stroke-width="2.9351" stroke-miterlimit="10" stroke-linecap="round" stroke-linejoin="round"></path><path d="M475.152 282.168V345.314" stroke="#E55948" stroke-width="2.9351" stroke-miterlimit="10" stroke-linecap="round" stroke-linejoin="round"></path><path d="M491.178 282.168V344.059" stroke="#E55948" stroke-width="2.9351" stroke-miterlimit="10" stroke-linecap="round" stroke-linejoin="round"></path></g><defs><clipPath id="clip0_195_6542"><rect width="560" height="414" fill="white"></rect></clipPath><clipPath id="clip1_195_6542"><rect width="109" height="108" fill="white" transform="translate(344 135.898) rotate(-7.85564)"></rect></clipPath></defs></svg> 